<mxfile host="app.diagrams.net" modified="2024-05-06T18:15:10.608Z" agent="Mozilla/5.0 (Macintosh; Intel Mac OS X 10_15_7) AppleWebKit/605.1.15 (KHTML, like Gecko) Version/17.1.2 Safari/605.1.15" etag="FqBj194k2ZACI_YWA0ah" version="24.3.1" type="device">
  <diagram name="Page-1" id="tstIdyG7_zvvG2r7K9B4">
    <mxGraphModel dx="2654" dy="5127" grid="1" gridSize="10" guides="1" tooltips="1" connect="1" arrows="1" fold="1" page="1" pageScale="1" pageWidth="850" pageHeight="1100" math="0" shadow="0">
      <root>
        <mxCell id="0" />
        <mxCell id="1" parent="0" />
        <mxCell id="wLcgSWEHZ2XCq0r8zkWl-23" value="&lt;&lt;Entity&gt;&gt;&#xa;BookAppointment" style="swimlane;fontStyle=0;align=center;verticalAlign=top;childLayout=stackLayout;horizontal=1;startSize=40;horizontalStack=0;resizeParent=1;resizeLast=0;collapsible=1;marginBottom=0;rounded=0;shadow=0;strokeWidth=1;fillColor=#bac8d3;strokeColor=#23445d;fontColor=#00364a;" parent="1" vertex="1">
          <mxGeometry x="-886" y="-2776" width="204" height="434" as="geometry">
            <mxRectangle x="550" y="140" width="160" height="26" as="alternateBounds" />
          </mxGeometry>
        </mxCell>
        <mxCell id="wLcgSWEHZ2XCq0r8zkWl-24" value="- appointmentID : int" style="text;align=left;verticalAlign=top;spacingLeft=4;spacingRight=4;overflow=hidden;rotatable=0;points=[[0,0.5],[1,0.5]];portConstraint=eastwest;fontColor=#00364a;" parent="wLcgSWEHZ2XCq0r8zkWl-23" vertex="1">
          <mxGeometry y="40" width="204" height="26" as="geometry" />
        </mxCell>
        <mxCell id="wLcgSWEHZ2XCq0r8zkWl-25" value="- date : String" style="text;align=left;verticalAlign=top;spacingLeft=4;spacingRight=4;overflow=hidden;rotatable=0;points=[[0,0.5],[1,0.5]];portConstraint=eastwest;rounded=0;shadow=0;html=0;fontColor=#00364a;" parent="wLcgSWEHZ2XCq0r8zkWl-23" vertex="1">
          <mxGeometry y="66" width="204" height="26" as="geometry" />
        </mxCell>
        <mxCell id="wLcgSWEHZ2XCq0r8zkWl-26" value="- time : String" style="text;align=left;verticalAlign=top;spacingLeft=4;spacingRight=4;overflow=hidden;rotatable=0;points=[[0,0.5],[1,0.5]];portConstraint=eastwest;rounded=0;shadow=0;html=0;fontColor=#00364a;" parent="wLcgSWEHZ2XCq0r8zkWl-23" vertex="1">
          <mxGeometry y="92" width="204" height="26" as="geometry" />
        </mxCell>
        <mxCell id="wLcgSWEHZ2XCq0r8zkWl-27" value="- healthcareProvider : Doctor" style="text;align=left;verticalAlign=top;spacingLeft=4;spacingRight=4;overflow=hidden;rotatable=0;points=[[0,0.5],[1,0.5]];portConstraint=eastwest;rounded=0;shadow=0;html=0;fontColor=#00364a;" parent="wLcgSWEHZ2XCq0r8zkWl-23" vertex="1">
          <mxGeometry y="118" width="204" height="30" as="geometry" />
        </mxCell>
        <mxCell id="wLcgSWEHZ2XCq0r8zkWl-78" value="- patient : Patient" style="text;align=left;verticalAlign=top;spacingLeft=4;spacingRight=4;overflow=hidden;rotatable=0;points=[[0,0.5],[1,0.5]];portConstraint=eastwest;rounded=0;shadow=0;html=0;fontColor=#00364a;" parent="wLcgSWEHZ2XCq0r8zkWl-23" vertex="1">
          <mxGeometry y="148" width="204" height="30" as="geometry" />
        </mxCell>
        <mxCell id="wLcgSWEHZ2XCq0r8zkWl-79" value="- status : AppointmentStatus" style="text;align=left;verticalAlign=top;spacingLeft=4;spacingRight=4;overflow=hidden;rotatable=0;points=[[0,0.5],[1,0.5]];portConstraint=eastwest;rounded=0;shadow=0;html=0;fontColor=#00364a;" parent="wLcgSWEHZ2XCq0r8zkWl-23" vertex="1">
          <mxGeometry y="178" width="204" height="30" as="geometry" />
        </mxCell>
        <mxCell id="wLcgSWEHZ2XCq0r8zkWl-28" value="" style="line;html=1;strokeWidth=1;align=left;verticalAlign=middle;spacingTop=-1;spacingLeft=3;spacingRight=3;rotatable=0;labelPosition=right;points=[];portConstraint=eastwest;fontColor=#00364a;" parent="wLcgSWEHZ2XCq0r8zkWl-23" vertex="1">
          <mxGeometry y="208" width="204" height="8" as="geometry" />
        </mxCell>
        <mxCell id="wLcgSWEHZ2XCq0r8zkWl-83" value="+ BookAppointment()" style="text;align=left;verticalAlign=top;spacingLeft=4;spacingRight=4;overflow=hidden;rotatable=0;points=[[0,0.5],[1,0.5]];portConstraint=eastwest;rounded=0;shadow=0;html=0;fontColor=#00364a;fontSize=12;" parent="wLcgSWEHZ2XCq0r8zkWl-23" vertex="1">
          <mxGeometry y="216" width="204" height="26" as="geometry" />
        </mxCell>
        <mxCell id="wLcgSWEHZ2XCq0r8zkWl-82" value="+ setAppointmentID(int)" style="text;align=left;verticalAlign=top;spacingLeft=4;spacingRight=4;overflow=hidden;rotatable=0;points=[[0,0.5],[1,0.5]];portConstraint=eastwest;rounded=0;shadow=0;html=0;fontColor=#00364a;fontSize=12;" parent="wLcgSWEHZ2XCq0r8zkWl-23" vertex="1">
          <mxGeometry y="242" width="204" height="26" as="geometry" />
        </mxCell>
        <mxCell id="wLcgSWEHZ2XCq0r8zkWl-33" value="+ getAppointmentID()" style="text;align=left;verticalAlign=top;spacingLeft=4;spacingRight=4;overflow=hidden;rotatable=0;points=[[0,0.5],[1,0.5]];portConstraint=eastwest;rounded=0;shadow=0;html=0;fontColor=#00364a;fontSize=12;" parent="wLcgSWEHZ2XCq0r8zkWl-23" vertex="1">
          <mxGeometry y="268" width="204" height="26" as="geometry" />
        </mxCell>
        <mxCell id="wLcgSWEHZ2XCq0r8zkWl-29" value="+ createAppointment()" style="text;align=left;verticalAlign=top;spacingLeft=4;spacingRight=4;overflow=hidden;rotatable=0;points=[[0,0.5],[1,0.5]];portConstraint=eastwest;fontColor=#00364a;" parent="wLcgSWEHZ2XCq0r8zkWl-23" vertex="1">
          <mxGeometry y="294" width="204" height="28" as="geometry" />
        </mxCell>
        <mxCell id="wLcgSWEHZ2XCq0r8zkWl-30" value="+ manageAppointment()" style="text;align=left;verticalAlign=top;spacingLeft=4;spacingRight=4;overflow=hidden;rotatable=0;points=[[0,0.5],[1,0.5]];portConstraint=eastwest;fontColor=#00364a;" parent="wLcgSWEHZ2XCq0r8zkWl-23" vertex="1">
          <mxGeometry y="322" width="204" height="28" as="geometry" />
        </mxCell>
        <mxCell id="NCuWdFcefo5cONYe_Eqj-3" value="+ viewScheduledAppointment()" style="text;align=left;verticalAlign=top;spacingLeft=4;spacingRight=4;overflow=hidden;rotatable=0;points=[[0,0.5],[1,0.5]];portConstraint=eastwest;rounded=0;shadow=0;html=0;fontColor=#00364a;" parent="wLcgSWEHZ2XCq0r8zkWl-23" vertex="1">
          <mxGeometry y="350" width="204" height="24" as="geometry" />
        </mxCell>
        <mxCell id="wLcgSWEHZ2XCq0r8zkWl-31" value="+ cancelAppointment()" style="text;align=left;verticalAlign=top;spacingLeft=4;spacingRight=4;overflow=hidden;rotatable=0;points=[[0,0.5],[1,0.5]];portConstraint=eastwest;fontColor=#00364a;" parent="wLcgSWEHZ2XCq0r8zkWl-23" vertex="1">
          <mxGeometry y="374" width="204" height="28" as="geometry" />
        </mxCell>
        <mxCell id="wLcgSWEHZ2XCq0r8zkWl-32" value="+ getAppointmentDetails()" style="text;align=left;verticalAlign=top;spacingLeft=4;spacingRight=4;overflow=hidden;rotatable=0;points=[[0,0.5],[1,0.5]];portConstraint=eastwest;fontColor=#00364a;" parent="wLcgSWEHZ2XCq0r8zkWl-23" vertex="1">
          <mxGeometry y="402" width="204" height="32" as="geometry" />
        </mxCell>
        <mxCell id="wLcgSWEHZ2XCq0r8zkWl-45" value="&lt;&lt;Enumeration&gt;&gt;&#xa;AppointmentStatus" style="swimlane;fontStyle=0;align=center;verticalAlign=top;childLayout=stackLayout;horizontal=1;startSize=40;horizontalStack=0;resizeParent=1;resizeLast=0;collapsible=1;marginBottom=0;rounded=0;shadow=0;strokeWidth=1;fillColor=#bac8d3;strokeColor=#23445d;fontColor=#00364a;" parent="1" vertex="1">
          <mxGeometry x="100" y="-2030" width="204" height="150" as="geometry">
            <mxRectangle x="550" y="140" width="160" height="26" as="alternateBounds" />
          </mxGeometry>
        </mxCell>
        <mxCell id="wLcgSWEHZ2XCq0r8zkWl-46" value="PENDING" style="text;align=left;verticalAlign=top;spacingLeft=4;spacingRight=4;overflow=hidden;rotatable=0;points=[[0,0.5],[1,0.5]];portConstraint=eastwest;fontColor=#00364a;" parent="wLcgSWEHZ2XCq0r8zkWl-45" vertex="1">
          <mxGeometry y="40" width="204" height="26" as="geometry" />
        </mxCell>
        <mxCell id="wLcgSWEHZ2XCq0r8zkWl-47" value="CONFIRMED" style="text;align=left;verticalAlign=top;spacingLeft=4;spacingRight=4;overflow=hidden;rotatable=0;points=[[0,0.5],[1,0.5]];portConstraint=eastwest;rounded=0;shadow=0;html=0;fontColor=#00364a;" parent="wLcgSWEHZ2XCq0r8zkWl-45" vertex="1">
          <mxGeometry y="66" width="204" height="26" as="geometry" />
        </mxCell>
        <mxCell id="wLcgSWEHZ2XCq0r8zkWl-52" value="CANCELLED" style="text;align=left;verticalAlign=top;spacingLeft=4;spacingRight=4;overflow=hidden;rotatable=0;points=[[0,0.5],[1,0.5]];portConstraint=eastwest;fontColor=#00364a;" parent="wLcgSWEHZ2XCq0r8zkWl-45" vertex="1">
          <mxGeometry y="92" width="204" height="28" as="geometry" />
        </mxCell>
        <mxCell id="wLcgSWEHZ2XCq0r8zkWl-80" value="COMPLETED" style="text;align=left;verticalAlign=top;spacingLeft=4;spacingRight=4;overflow=hidden;rotatable=0;points=[[0,0.5],[1,0.5]];portConstraint=eastwest;rounded=0;shadow=0;html=0;fontColor=#00364a;" parent="wLcgSWEHZ2XCq0r8zkWl-45" vertex="1">
          <mxGeometry y="120" width="204" height="26" as="geometry" />
        </mxCell>
        <mxCell id="wLcgSWEHZ2XCq0r8zkWl-56" value="&lt;&lt;Entity&gt;&gt;&#xa;InsuranceInfo" style="swimlane;fontStyle=0;align=center;verticalAlign=top;childLayout=stackLayout;horizontal=1;startSize=40;horizontalStack=0;resizeParent=1;resizeLast=0;collapsible=1;marginBottom=0;rounded=0;shadow=0;strokeWidth=1;fillColor=#bac8d3;strokeColor=#23445d;fontColor=#00364a;" parent="1" vertex="1">
          <mxGeometry x="-841" y="-3180" width="204" height="240" as="geometry">
            <mxRectangle x="550" y="140" width="160" height="26" as="alternateBounds" />
          </mxGeometry>
        </mxCell>
        <mxCell id="wLcgSWEHZ2XCq0r8zkWl-57" value="- insuranceCompany : String" style="text;align=left;verticalAlign=top;spacingLeft=4;spacingRight=4;overflow=hidden;rotatable=0;points=[[0,0.5],[1,0.5]];portConstraint=eastwest;fontColor=#00364a;" parent="wLcgSWEHZ2XCq0r8zkWl-56" vertex="1">
          <mxGeometry y="40" width="204" height="26" as="geometry" />
        </mxCell>
        <mxCell id="wLcgSWEHZ2XCq0r8zkWl-58" value="- policyNumber : String" style="text;align=left;verticalAlign=top;spacingLeft=4;spacingRight=4;overflow=hidden;rotatable=0;points=[[0,0.5],[1,0.5]];portConstraint=eastwest;rounded=0;shadow=0;html=0;fontColor=#00364a;" parent="wLcgSWEHZ2XCq0r8zkWl-56" vertex="1">
          <mxGeometry y="66" width="204" height="26" as="geometry" />
        </mxCell>
        <mxCell id="wLcgSWEHZ2XCq0r8zkWl-61" value="" style="line;html=1;strokeWidth=1;align=left;verticalAlign=middle;spacingTop=-1;spacingLeft=3;spacingRight=3;rotatable=0;labelPosition=right;points=[];portConstraint=eastwest;fontColor=#00364a;" parent="wLcgSWEHZ2XCq0r8zkWl-56" vertex="1">
          <mxGeometry y="92" width="204" height="8" as="geometry" />
        </mxCell>
        <mxCell id="wLcgSWEHZ2XCq0r8zkWl-62" value="+ InsuranceInfo(String, String)" style="text;align=left;verticalAlign=top;spacingLeft=4;spacingRight=4;overflow=hidden;rotatable=0;points=[[0,0.5],[1,0.5]];portConstraint=eastwest;fontColor=#00364a;" parent="wLcgSWEHZ2XCq0r8zkWl-56" vertex="1">
          <mxGeometry y="100" width="204" height="28" as="geometry" />
        </mxCell>
        <mxCell id="wLcgSWEHZ2XCq0r8zkWl-64" value="+ setInsuranceCompany(String)" style="text;align=left;verticalAlign=top;spacingLeft=4;spacingRight=4;overflow=hidden;rotatable=0;points=[[0,0.5],[1,0.5]];portConstraint=eastwest;fontColor=#00364a;" parent="wLcgSWEHZ2XCq0r8zkWl-56" vertex="1">
          <mxGeometry y="128" width="204" height="28" as="geometry" />
        </mxCell>
        <mxCell id="wLcgSWEHZ2XCq0r8zkWl-63" value="+ getInsuranceCompany()" style="text;align=left;verticalAlign=top;spacingLeft=4;spacingRight=4;overflow=hidden;rotatable=0;points=[[0,0.5],[1,0.5]];portConstraint=eastwest;fontColor=#00364a;" parent="wLcgSWEHZ2XCq0r8zkWl-56" vertex="1">
          <mxGeometry y="156" width="204" height="28" as="geometry" />
        </mxCell>
        <mxCell id="wLcgSWEHZ2XCq0r8zkWl-65" value="+ setPolicyNumber(String)" style="text;align=left;verticalAlign=top;spacingLeft=4;spacingRight=4;overflow=hidden;rotatable=0;points=[[0,0.5],[1,0.5]];portConstraint=eastwest;fontColor=#00364a;" parent="wLcgSWEHZ2XCq0r8zkWl-56" vertex="1">
          <mxGeometry y="184" width="204" height="28" as="geometry" />
        </mxCell>
        <mxCell id="wLcgSWEHZ2XCq0r8zkWl-66" value="+ getPolicyNumber()" style="text;align=left;verticalAlign=top;spacingLeft=4;spacingRight=4;overflow=hidden;rotatable=0;points=[[0,0.5],[1,0.5]];portConstraint=eastwest;rounded=0;shadow=0;html=0;fontColor=#00364a;fontSize=12;" parent="wLcgSWEHZ2XCq0r8zkWl-56" vertex="1">
          <mxGeometry y="212" width="204" height="26" as="geometry" />
        </mxCell>
        <mxCell id="wLcgSWEHZ2XCq0r8zkWl-67" value="&lt;&lt;Entity&gt;&gt;&#xa;Patient" style="swimlane;fontStyle=0;align=center;verticalAlign=top;childLayout=stackLayout;horizontal=1;startSize=40;horizontalStack=0;resizeParent=1;resizeLast=0;collapsible=1;marginBottom=0;rounded=0;shadow=0;strokeWidth=1;fillColor=#bac8d3;strokeColor=#23445d;fontColor=#00364a;" parent="1" vertex="1">
          <mxGeometry x="-562" y="-2776" width="204" height="356" as="geometry">
            <mxRectangle x="550" y="140" width="160" height="26" as="alternateBounds" />
          </mxGeometry>
        </mxCell>
        <mxCell id="wLcgSWEHZ2XCq0r8zkWl-69" value="- patientID : int" style="text;align=left;verticalAlign=top;spacingLeft=4;spacingRight=4;overflow=hidden;rotatable=0;points=[[0,0.5],[1,0.5]];portConstraint=eastwest;rounded=0;shadow=0;html=0;fontColor=#00364a;" parent="wLcgSWEHZ2XCq0r8zkWl-67" vertex="1">
          <mxGeometry y="40" width="204" height="26" as="geometry" />
        </mxCell>
        <mxCell id="wLcgSWEHZ2XCq0r8zkWl-70" value="- medicalHistory : String" style="text;align=left;verticalAlign=top;spacingLeft=4;spacingRight=4;overflow=hidden;rotatable=0;points=[[0,0.5],[1,0.5]];portConstraint=eastwest;rounded=0;shadow=0;html=0;fontColor=#00364a;" parent="wLcgSWEHZ2XCq0r8zkWl-67" vertex="1">
          <mxGeometry y="66" width="204" height="26" as="geometry" />
        </mxCell>
        <mxCell id="NCuWdFcefo5cONYe_Eqj-77" value="- name : String" style="text;align=left;verticalAlign=top;spacingLeft=4;spacingRight=4;overflow=hidden;rotatable=0;points=[[0,0.5],[1,0.5]];portConstraint=eastwest;rounded=0;shadow=0;html=0;fontColor=#00364a;" parent="wLcgSWEHZ2XCq0r8zkWl-67" vertex="1">
          <mxGeometry y="92" width="204" height="26" as="geometry" />
        </mxCell>
        <mxCell id="wLcgSWEHZ2XCq0r8zkWl-71" value="- insuranceInfo : InsuranceInfo" style="text;align=left;verticalAlign=top;spacingLeft=4;spacingRight=4;overflow=hidden;rotatable=0;points=[[0,0.5],[1,0.5]];portConstraint=eastwest;rounded=0;shadow=0;html=0;fontColor=#00364a;" parent="wLcgSWEHZ2XCq0r8zkWl-67" vertex="1">
          <mxGeometry y="118" width="204" height="30" as="geometry" />
        </mxCell>
        <mxCell id="wLcgSWEHZ2XCq0r8zkWl-72" value="" style="line;html=1;strokeWidth=1;align=left;verticalAlign=middle;spacingTop=-1;spacingLeft=3;spacingRight=3;rotatable=0;labelPosition=right;points=[];portConstraint=eastwest;fontColor=#00364a;" parent="wLcgSWEHZ2XCq0r8zkWl-67" vertex="1">
          <mxGeometry y="148" width="204" height="8" as="geometry" />
        </mxCell>
        <mxCell id="wLcgSWEHZ2XCq0r8zkWl-73" value="+ Patient()" style="text;align=left;verticalAlign=top;spacingLeft=4;spacingRight=4;overflow=hidden;rotatable=0;points=[[0,0.5],[1,0.5]];portConstraint=eastwest;fontColor=#00364a;" parent="wLcgSWEHZ2XCq0r8zkWl-67" vertex="1">
          <mxGeometry y="156" width="204" height="28" as="geometry" />
        </mxCell>
        <mxCell id="wLcgSWEHZ2XCq0r8zkWl-76" value="+ setMedicalHistory(String)" style="text;align=left;verticalAlign=top;spacingLeft=4;spacingRight=4;overflow=hidden;rotatable=0;points=[[0,0.5],[1,0.5]];portConstraint=eastwest;fontColor=#00364a;" parent="wLcgSWEHZ2XCq0r8zkWl-67" vertex="1">
          <mxGeometry y="184" width="204" height="28" as="geometry" />
        </mxCell>
        <mxCell id="wLcgSWEHZ2XCq0r8zkWl-75" value="+ getMedicalHistory()" style="text;align=left;verticalAlign=top;spacingLeft=4;spacingRight=4;overflow=hidden;rotatable=0;points=[[0,0.5],[1,0.5]];portConstraint=eastwest;fontColor=#00364a;" parent="wLcgSWEHZ2XCq0r8zkWl-67" vertex="1">
          <mxGeometry y="212" width="204" height="28" as="geometry" />
        </mxCell>
        <mxCell id="wLcgSWEHZ2XCq0r8zkWl-102" value="+ setInsuranceInfo(InsuranceInfo)" style="text;align=left;verticalAlign=top;spacingLeft=4;spacingRight=4;overflow=hidden;rotatable=0;points=[[0,0.5],[1,0.5]];portConstraint=eastwest;fontColor=#00364a;" parent="wLcgSWEHZ2XCq0r8zkWl-67" vertex="1">
          <mxGeometry y="240" width="204" height="28" as="geometry" />
        </mxCell>
        <mxCell id="wLcgSWEHZ2XCq0r8zkWl-101" value="+ getInsuranceInfo()" style="text;align=left;verticalAlign=top;spacingLeft=4;spacingRight=4;overflow=hidden;rotatable=0;points=[[0,0.5],[1,0.5]];portConstraint=eastwest;fontColor=#00364a;" parent="wLcgSWEHZ2XCq0r8zkWl-67" vertex="1">
          <mxGeometry y="268" width="204" height="28" as="geometry" />
        </mxCell>
        <mxCell id="NCuWdFcefo5cONYe_Eqj-78" value="+ setName(String)" style="text;align=left;verticalAlign=top;spacingLeft=4;spacingRight=4;overflow=hidden;rotatable=0;points=[[0,0.5],[1,0.5]];portConstraint=eastwest;fontColor=#00364a;" parent="wLcgSWEHZ2XCq0r8zkWl-67" vertex="1">
          <mxGeometry y="296" width="204" height="28" as="geometry" />
        </mxCell>
        <mxCell id="NCuWdFcefo5cONYe_Eqj-79" value="+ getName()" style="text;align=left;verticalAlign=top;spacingLeft=4;spacingRight=4;overflow=hidden;rotatable=0;points=[[0,0.5],[1,0.5]];portConstraint=eastwest;fontColor=#00364a;" parent="wLcgSWEHZ2XCq0r8zkWl-67" vertex="1">
          <mxGeometry y="324" width="204" height="28" as="geometry" />
        </mxCell>
        <mxCell id="wLcgSWEHZ2XCq0r8zkWl-94" value="&lt;&lt;Boundary&gt;&gt;&#xa;AppointmentBoundary" style="swimlane;fontStyle=0;align=center;verticalAlign=top;childLayout=stackLayout;horizontal=1;startSize=40;horizontalStack=0;resizeParent=1;resizeLast=0;collapsible=1;marginBottom=0;rounded=0;shadow=0;strokeWidth=1;fillColor=#bac8d3;strokeColor=#23445d;fontColor=#00364a;" parent="1" vertex="1">
          <mxGeometry x="-270" y="-2382" width="204" height="144" as="geometry">
            <mxRectangle x="550" y="140" width="160" height="26" as="alternateBounds" />
          </mxGeometry>
        </mxCell>
        <mxCell id="wLcgSWEHZ2XCq0r8zkWl-96" value="+ writeComplaint()" style="text;align=left;verticalAlign=top;spacingLeft=4;spacingRight=4;overflow=hidden;rotatable=0;points=[[0,0.5],[1,0.5]];portConstraint=eastwest;rounded=0;shadow=0;html=0;fontColor=#00364a;" parent="wLcgSWEHZ2XCq0r8zkWl-94" vertex="1">
          <mxGeometry y="40" width="204" height="26" as="geometry" />
        </mxCell>
        <mxCell id="wLcgSWEHZ2XCq0r8zkWl-100" value="+ viewSchedule()" style="text;align=left;verticalAlign=top;spacingLeft=4;spacingRight=4;overflow=hidden;rotatable=0;points=[[0,0.5],[1,0.5]];portConstraint=eastwest;rounded=0;shadow=0;html=0;fontColor=#00364a;" parent="wLcgSWEHZ2XCq0r8zkWl-94" vertex="1">
          <mxGeometry y="66" width="204" height="26" as="geometry" />
        </mxCell>
        <mxCell id="hXaTUdFNADPDVRghAndI-9" value="+ login()" style="text;align=left;verticalAlign=top;spacingLeft=4;spacingRight=4;overflow=hidden;rotatable=0;points=[[0,0.5],[1,0.5]];portConstraint=eastwest;rounded=0;shadow=0;html=0;fontColor=#00364a;" parent="wLcgSWEHZ2XCq0r8zkWl-94" vertex="1">
          <mxGeometry y="92" width="204" height="26" as="geometry" />
        </mxCell>
        <mxCell id="wLcgSWEHZ2XCq0r8zkWl-99" value="+ manageSchedule()" style="text;align=left;verticalAlign=top;spacingLeft=4;spacingRight=4;overflow=hidden;rotatable=0;points=[[0,0.5],[1,0.5]];portConstraint=eastwest;rounded=0;shadow=0;html=0;fontColor=#00364a;" parent="wLcgSWEHZ2XCq0r8zkWl-94" vertex="1">
          <mxGeometry y="118" width="204" height="26" as="geometry" />
        </mxCell>
        <mxCell id="hXaTUdFNADPDVRghAndI-5" value="&lt;&lt;Control&gt;&gt;&#xa;AppointmentControl" style="swimlane;fontStyle=0;align=center;verticalAlign=top;childLayout=stackLayout;horizontal=1;startSize=40;horizontalStack=0;resizeParent=1;resizeLast=0;collapsible=1;marginBottom=0;rounded=0;shadow=0;strokeWidth=1;fillColor=#bac8d3;strokeColor=#23445d;fontColor=#00364a;" parent="1" vertex="1">
          <mxGeometry x="-1290" y="-2660" width="204" height="120" as="geometry">
            <mxRectangle x="550" y="140" width="160" height="26" as="alternateBounds" />
          </mxGeometry>
        </mxCell>
        <mxCell id="hXaTUdFNADPDVRghAndI-6" value="+ verifyLogin()" style="text;align=left;verticalAlign=top;spacingLeft=4;spacingRight=4;overflow=hidden;rotatable=0;points=[[0,0.5],[1,0.5]];portConstraint=eastwest;rounded=0;shadow=0;html=0;fontColor=#00364a;" parent="hXaTUdFNADPDVRghAndI-5" vertex="1">
          <mxGeometry y="40" width="204" height="26" as="geometry" />
        </mxCell>
        <mxCell id="hXaTUdFNADPDVRghAndI-7" value="+ viewSchedule()" style="text;align=left;verticalAlign=top;spacingLeft=4;spacingRight=4;overflow=hidden;rotatable=0;points=[[0,0.5],[1,0.5]];portConstraint=eastwest;rounded=0;shadow=0;html=0;fontColor=#00364a;" parent="hXaTUdFNADPDVRghAndI-5" vertex="1">
          <mxGeometry y="66" width="204" height="26" as="geometry" />
        </mxCell>
        <mxCell id="hXaTUdFNADPDVRghAndI-8" value="+ manageSchedule()" style="text;align=left;verticalAlign=top;spacingLeft=4;spacingRight=4;overflow=hidden;rotatable=0;points=[[0,0.5],[1,0.5]];portConstraint=eastwest;rounded=0;shadow=0;html=0;fontColor=#00364a;" parent="hXaTUdFNADPDVRghAndI-5" vertex="1">
          <mxGeometry y="92" width="204" height="26" as="geometry" />
        </mxCell>
        <mxCell id="hXaTUdFNADPDVRghAndI-11" value="&lt;&lt;Entity&gt;&gt;&#xa;Account" style="swimlane;fontStyle=0;align=center;verticalAlign=top;childLayout=stackLayout;horizontal=1;startSize=40;horizontalStack=0;resizeParent=1;resizeLast=0;collapsible=1;marginBottom=0;rounded=0;shadow=0;strokeWidth=1;fillColor=#bac8d3;strokeColor=#23445d;fontColor=#00364a;" parent="1" vertex="1">
          <mxGeometry x="-260" y="-2889" width="204" height="129" as="geometry">
            <mxRectangle x="550" y="140" width="160" height="26" as="alternateBounds" />
          </mxGeometry>
        </mxCell>
        <mxCell id="hXaTUdFNADPDVRghAndI-12" value="- username : String" style="text;align=left;verticalAlign=top;spacingLeft=4;spacingRight=4;overflow=hidden;rotatable=0;points=[[0,0.5],[1,0.5]];portConstraint=eastwest;rounded=0;shadow=0;html=0;fontColor=#00364a;" parent="hXaTUdFNADPDVRghAndI-11" vertex="1">
          <mxGeometry y="40" width="204" height="26" as="geometry" />
        </mxCell>
        <mxCell id="hXaTUdFNADPDVRghAndI-13" value="- password : String" style="text;align=left;verticalAlign=top;spacingLeft=4;spacingRight=4;overflow=hidden;rotatable=0;points=[[0,0.5],[1,0.5]];portConstraint=eastwest;rounded=0;shadow=0;html=0;fontColor=#00364a;" parent="hXaTUdFNADPDVRghAndI-11" vertex="1">
          <mxGeometry y="66" width="204" height="26" as="geometry" />
        </mxCell>
        <mxCell id="hXaTUdFNADPDVRghAndI-15" value="" style="line;html=1;strokeWidth=1;align=left;verticalAlign=middle;spacingTop=-1;spacingLeft=3;spacingRight=3;rotatable=0;labelPosition=right;points=[];portConstraint=eastwest;fontColor=#00364a;" parent="hXaTUdFNADPDVRghAndI-11" vertex="1">
          <mxGeometry y="92" width="204" height="8" as="geometry" />
        </mxCell>
        <mxCell id="hXaTUdFNADPDVRghAndI-21" value="+ checkAccount()" style="text;align=left;verticalAlign=top;spacingLeft=4;spacingRight=4;overflow=hidden;rotatable=0;points=[[0,0.5],[1,0.5]];portConstraint=eastwest;fontColor=#00364a;" parent="hXaTUdFNADPDVRghAndI-11" vertex="1">
          <mxGeometry y="100" width="204" height="28" as="geometry" />
        </mxCell>
        <mxCell id="hXaTUdFNADPDVRghAndI-23" value="" style="endArrow=diamondThin;endFill=1;endSize=24;html=1;rounded=0;entryX=0.5;entryY=0;entryDx=0;entryDy=0;exitX=0.5;exitY=1;exitDx=0;exitDy=0;" parent="1" source="wLcgSWEHZ2XCq0r8zkWl-56" target="wLcgSWEHZ2XCq0r8zkWl-67" edge="1">
          <mxGeometry width="160" relative="1" as="geometry">
            <mxPoint x="-600" y="-2890" as="sourcePoint" />
            <mxPoint x="-440" y="-2890" as="targetPoint" />
            <Array as="points">
              <mxPoint x="-740" y="-2830" />
              <mxPoint x="-460" y="-2830" />
            </Array>
          </mxGeometry>
        </mxCell>
        <mxCell id="hXaTUdFNADPDVRghAndI-24" value="" style="endArrow=diamondThin;endFill=0;endSize=24;html=1;rounded=0;entryX=1;entryY=0.5;entryDx=0;entryDy=0;" parent="1" edge="1">
          <mxGeometry width="160" relative="1" as="geometry">
            <mxPoint x="-560" y="-2669" as="sourcePoint" />
            <mxPoint x="-683" y="-2669" as="targetPoint" />
          </mxGeometry>
        </mxCell>
        <mxCell id="JYmju7sdqxkonGuVafDF-1" value="&lt;&lt;Entity&gt;&gt;&#xa;Doctor" style="swimlane;fontStyle=0;align=center;verticalAlign=top;childLayout=stackLayout;horizontal=1;startSize=40;horizontalStack=0;resizeParent=1;resizeLast=0;collapsible=1;marginBottom=0;rounded=0;shadow=0;strokeWidth=1;fillColor=#bac8d3;strokeColor=#23445d;fontColor=#00364a;" parent="1" vertex="1">
          <mxGeometry x="-1340" y="-2470" width="204" height="350" as="geometry">
            <mxRectangle x="550" y="140" width="160" height="26" as="alternateBounds" />
          </mxGeometry>
        </mxCell>
        <mxCell id="JYmju7sdqxkonGuVafDF-2" value="- doctorID : int" style="text;align=left;verticalAlign=top;spacingLeft=4;spacingRight=4;overflow=hidden;rotatable=0;points=[[0,0.5],[1,0.5]];portConstraint=eastwest;rounded=0;shadow=0;html=0;fontColor=#00364a;" parent="JYmju7sdqxkonGuVafDF-1" vertex="1">
          <mxGeometry y="40" width="204" height="26" as="geometry" />
        </mxCell>
        <mxCell id="JYmju7sdqxkonGuVafDF-3" value="- name : String" style="text;align=left;verticalAlign=top;spacingLeft=4;spacingRight=4;overflow=hidden;rotatable=0;points=[[0,0.5],[1,0.5]];portConstraint=eastwest;rounded=0;shadow=0;html=0;fontColor=#00364a;" parent="JYmju7sdqxkonGuVafDF-1" vertex="1">
          <mxGeometry y="66" width="204" height="26" as="geometry" />
        </mxCell>
        <mxCell id="JYmju7sdqxkonGuVafDF-4" value="- specialty : String" style="text;align=left;verticalAlign=top;spacingLeft=4;spacingRight=4;overflow=hidden;rotatable=0;points=[[0,0.5],[1,0.5]];portConstraint=eastwest;rounded=0;shadow=0;html=0;fontColor=#00364a;" parent="JYmju7sdqxkonGuVafDF-1" vertex="1">
          <mxGeometry y="92" width="204" height="30" as="geometry" />
        </mxCell>
        <mxCell id="JYmju7sdqxkonGuVafDF-5" value="" style="line;html=1;strokeWidth=1;align=left;verticalAlign=middle;spacingTop=-1;spacingLeft=3;spacingRight=3;rotatable=0;labelPosition=right;points=[];portConstraint=eastwest;fontColor=#00364a;" parent="JYmju7sdqxkonGuVafDF-1" vertex="1">
          <mxGeometry y="122" width="204" height="8" as="geometry" />
        </mxCell>
        <mxCell id="JYmju7sdqxkonGuVafDF-6" value="+ Doctor(int, String, String)" style="text;align=left;verticalAlign=top;spacingLeft=4;spacingRight=4;overflow=hidden;rotatable=0;points=[[0,0.5],[1,0.5]];portConstraint=eastwest;fontColor=#00364a;" parent="JYmju7sdqxkonGuVafDF-1" vertex="1">
          <mxGeometry y="130" width="204" height="28" as="geometry" />
        </mxCell>
        <mxCell id="JYmju7sdqxkonGuVafDF-7" value="+ setDoctorID(int)" style="text;align=left;verticalAlign=top;spacingLeft=4;spacingRight=4;overflow=hidden;rotatable=0;points=[[0,0.5],[1,0.5]];portConstraint=eastwest;fontColor=#00364a;" parent="JYmju7sdqxkonGuVafDF-1" vertex="1">
          <mxGeometry y="158" width="204" height="28" as="geometry" />
        </mxCell>
        <mxCell id="JYmju7sdqxkonGuVafDF-12" value="+ getDoctorID()" style="text;align=left;verticalAlign=top;spacingLeft=4;spacingRight=4;overflow=hidden;rotatable=0;points=[[0,0.5],[1,0.5]];portConstraint=eastwest;fontColor=#00364a;" parent="JYmju7sdqxkonGuVafDF-1" vertex="1">
          <mxGeometry y="186" width="204" height="28" as="geometry" />
        </mxCell>
        <mxCell id="JYmju7sdqxkonGuVafDF-9" value="+ setName(String)" style="text;align=left;verticalAlign=top;spacingLeft=4;spacingRight=4;overflow=hidden;rotatable=0;points=[[0,0.5],[1,0.5]];portConstraint=eastwest;fontColor=#00364a;" parent="JYmju7sdqxkonGuVafDF-1" vertex="1">
          <mxGeometry y="214" width="204" height="28" as="geometry" />
        </mxCell>
        <mxCell id="JYmju7sdqxkonGuVafDF-10" value="+ getName()" style="text;align=left;verticalAlign=top;spacingLeft=4;spacingRight=4;overflow=hidden;rotatable=0;points=[[0,0.5],[1,0.5]];portConstraint=eastwest;fontColor=#00364a;" parent="JYmju7sdqxkonGuVafDF-1" vertex="1">
          <mxGeometry y="242" width="204" height="28" as="geometry" />
        </mxCell>
        <mxCell id="JYmju7sdqxkonGuVafDF-11" value="+ setSpecialty(String)" style="text;align=left;verticalAlign=top;spacingLeft=4;spacingRight=4;overflow=hidden;rotatable=0;points=[[0,0.5],[1,0.5]];portConstraint=eastwest;rounded=0;shadow=0;html=0;fontColor=#00364a;" parent="JYmju7sdqxkonGuVafDF-1" vertex="1">
          <mxGeometry y="270" width="204" height="26" as="geometry" />
        </mxCell>
        <mxCell id="JYmju7sdqxkonGuVafDF-13" value="+ getSpecialty()" style="text;align=left;verticalAlign=top;spacingLeft=4;spacingRight=4;overflow=hidden;rotatable=0;points=[[0,0.5],[1,0.5]];portConstraint=eastwest;rounded=0;shadow=0;html=0;fontColor=#00364a;" parent="JYmju7sdqxkonGuVafDF-1" vertex="1">
          <mxGeometry y="296" width="204" height="24" as="geometry" />
        </mxCell>
        <mxCell id="NCuWdFcefo5cONYe_Eqj-2" value="+ register()&#xa;" style="text;align=left;verticalAlign=top;spacingLeft=4;spacingRight=4;overflow=hidden;rotatable=0;points=[[0,0.5],[1,0.5]];portConstraint=eastwest;rounded=0;shadow=0;html=0;fontColor=#00364a;" parent="JYmju7sdqxkonGuVafDF-1" vertex="1">
          <mxGeometry y="320" width="204" height="24" as="geometry" />
        </mxCell>
        <mxCell id="JYmju7sdqxkonGuVafDF-15" value="&lt;&lt;Entity&gt;&gt;&#xa;Admin" style="swimlane;fontStyle=0;align=center;verticalAlign=top;childLayout=stackLayout;horizontal=1;startSize=40;horizontalStack=0;resizeParent=1;resizeLast=0;collapsible=1;marginBottom=0;rounded=0;shadow=0;strokeWidth=1;fillColor=#bac8d3;strokeColor=#23445d;fontColor=#00364a;" parent="1" vertex="1">
          <mxGeometry x="-632" y="-2260" width="204" height="240" as="geometry">
            <mxRectangle x="550" y="140" width="160" height="26" as="alternateBounds" />
          </mxGeometry>
        </mxCell>
        <mxCell id="JYmju7sdqxkonGuVafDF-29" value="- adminID : int" style="text;align=left;verticalAlign=top;spacingLeft=4;spacingRight=4;overflow=hidden;rotatable=0;points=[[0,0.5],[1,0.5]];portConstraint=eastwest;rounded=0;shadow=0;html=0;fontColor=#00364a;" parent="JYmju7sdqxkonGuVafDF-15" vertex="1">
          <mxGeometry y="40" width="204" height="26" as="geometry" />
        </mxCell>
        <mxCell id="JYmju7sdqxkonGuVafDF-28" value="- name : String" style="text;align=left;verticalAlign=top;spacingLeft=4;spacingRight=4;overflow=hidden;rotatable=0;points=[[0,0.5],[1,0.5]];portConstraint=eastwest;rounded=0;shadow=0;html=0;fontColor=#00364a;" parent="JYmju7sdqxkonGuVafDF-15" vertex="1">
          <mxGeometry y="66" width="204" height="26" as="geometry" />
        </mxCell>
        <mxCell id="JYmju7sdqxkonGuVafDF-19" value="" style="line;html=1;strokeWidth=1;align=left;verticalAlign=middle;spacingTop=-1;spacingLeft=3;spacingRight=3;rotatable=0;labelPosition=right;points=[];portConstraint=eastwest;fontColor=#00364a;" parent="JYmju7sdqxkonGuVafDF-15" vertex="1">
          <mxGeometry y="92" width="204" height="8" as="geometry" />
        </mxCell>
        <mxCell id="JYmju7sdqxkonGuVafDF-20" value="+ Admin(int, String)" style="text;align=left;verticalAlign=top;spacingLeft=4;spacingRight=4;overflow=hidden;rotatable=0;points=[[0,0.5],[1,0.5]];portConstraint=eastwest;fontColor=#00364a;" parent="JYmju7sdqxkonGuVafDF-15" vertex="1">
          <mxGeometry y="100" width="204" height="28" as="geometry" />
        </mxCell>
        <mxCell id="JYmju7sdqxkonGuVafDF-21" value="+ setAdminID(int)" style="text;align=left;verticalAlign=top;spacingLeft=4;spacingRight=4;overflow=hidden;rotatable=0;points=[[0,0.5],[1,0.5]];portConstraint=eastwest;fontColor=#00364a;" parent="JYmju7sdqxkonGuVafDF-15" vertex="1">
          <mxGeometry y="128" width="204" height="28" as="geometry" />
        </mxCell>
        <mxCell id="JYmju7sdqxkonGuVafDF-22" value="+ getAdminID()" style="text;align=left;verticalAlign=top;spacingLeft=4;spacingRight=4;overflow=hidden;rotatable=0;points=[[0,0.5],[1,0.5]];portConstraint=eastwest;fontColor=#00364a;" parent="JYmju7sdqxkonGuVafDF-15" vertex="1">
          <mxGeometry y="156" width="204" height="28" as="geometry" />
        </mxCell>
        <mxCell id="JYmju7sdqxkonGuVafDF-23" value="+ setName(String)" style="text;align=left;verticalAlign=top;spacingLeft=4;spacingRight=4;overflow=hidden;rotatable=0;points=[[0,0.5],[1,0.5]];portConstraint=eastwest;fontColor=#00364a;" parent="JYmju7sdqxkonGuVafDF-15" vertex="1">
          <mxGeometry y="184" width="204" height="28" as="geometry" />
        </mxCell>
        <mxCell id="JYmju7sdqxkonGuVafDF-30" value="+ getName()" style="text;align=left;verticalAlign=top;spacingLeft=4;spacingRight=4;overflow=hidden;rotatable=0;points=[[0,0.5],[1,0.5]];portConstraint=eastwest;fontColor=#00364a;" parent="JYmju7sdqxkonGuVafDF-15" vertex="1">
          <mxGeometry y="212" width="204" height="28" as="geometry" />
        </mxCell>
        <mxCell id="adHe35JYQzBacKlXErem-1" value="&amp;lt;&amp;lt;Control&amp;gt;&amp;gt;&lt;div&gt;ViewEmployeeList&lt;/div&gt;" style="swimlane;fontStyle=0;childLayout=stackLayout;horizontal=1;startSize=40;horizontalStack=0;resizeParent=1;resizeParentMax=0;resizeLast=0;collapsible=1;marginBottom=0;whiteSpace=wrap;html=1;fillColor=#bac8d3;strokeColor=#00364a;" parent="1" vertex="1">
          <mxGeometry x="-1255" y="-2863" width="204" height="92" as="geometry" />
        </mxCell>
        <mxCell id="NCuWdFcefo5cONYe_Eqj-16" value="+ verifyLogin()" style="text;align=left;verticalAlign=top;spacingLeft=4;spacingRight=4;overflow=hidden;rotatable=0;points=[[0,0.5],[1,0.5]];portConstraint=eastwest;rounded=0;shadow=0;html=0;fontColor=#00364a;" parent="adHe35JYQzBacKlXErem-1" vertex="1">
          <mxGeometry y="40" width="204" height="26" as="geometry" />
        </mxCell>
        <mxCell id="NCuWdFcefo5cONYe_Eqj-15" value="+ showEmployeeList()" style="text;align=left;verticalAlign=top;spacingLeft=4;spacingRight=4;overflow=hidden;rotatable=0;points=[[0,0.5],[1,0.5]];portConstraint=eastwest;rounded=0;shadow=0;html=0;fontColor=#00364a;" parent="adHe35JYQzBacKlXErem-1" vertex="1">
          <mxGeometry y="66" width="204" height="26" as="geometry" />
        </mxCell>
        <mxCell id="adHe35JYQzBacKlXErem-5" value="&amp;lt;&amp;lt;Boundary&amp;gt;&amp;gt;&lt;div&gt;SystemBoundary&lt;/div&gt;" style="swimlane;fontStyle=0;childLayout=stackLayout;horizontal=1;startSize=40;horizontalStack=0;resizeParent=1;resizeParentMax=0;resizeLast=0;collapsible=1;marginBottom=0;whiteSpace=wrap;html=1;fillColor=#bac8d3;strokeColor=#00364a;" parent="1" vertex="1">
          <mxGeometry x="-1275" y="-3191" width="204" height="144" as="geometry" />
        </mxCell>
        <mxCell id="adHe35JYQzBacKlXErem-9" style="edgeStyle=orthogonalEdgeStyle;rounded=0;orthogonalLoop=1;jettySize=auto;html=1;exitX=1;exitY=0.5;exitDx=0;exitDy=0;strokeColor=#00364a;" parent="adHe35JYQzBacKlXErem-5" edge="1">
          <mxGeometry relative="1" as="geometry">
            <mxPoint x="204" y="75" as="sourcePoint" />
            <mxPoint x="204" y="75" as="targetPoint" />
          </mxGeometry>
        </mxCell>
        <mxCell id="NCuWdFcefo5cONYe_Eqj-19" value="+ showLogin()" style="text;align=left;verticalAlign=top;spacingLeft=4;spacingRight=4;overflow=hidden;rotatable=0;points=[[0,0.5],[1,0.5]];portConstraint=eastwest;rounded=0;shadow=0;html=0;fontColor=#00364a;" parent="adHe35JYQzBacKlXErem-5" vertex="1">
          <mxGeometry y="40" width="204" height="26" as="geometry" />
        </mxCell>
        <mxCell id="NCuWdFcefo5cONYe_Eqj-20" value="+ showOpition()" style="text;align=left;verticalAlign=top;spacingLeft=4;spacingRight=4;overflow=hidden;rotatable=0;points=[[0,0.5],[1,0.5]];portConstraint=eastwest;rounded=0;shadow=0;html=0;fontColor=#00364a;" parent="adHe35JYQzBacKlXErem-5" vertex="1">
          <mxGeometry y="66" width="204" height="26" as="geometry" />
        </mxCell>
        <mxCell id="NCuWdFcefo5cONYe_Eqj-18" value="+ selectOpition()" style="text;align=left;verticalAlign=top;spacingLeft=4;spacingRight=4;overflow=hidden;rotatable=0;points=[[0,0.5],[1,0.5]];portConstraint=eastwest;rounded=0;shadow=0;html=0;fontColor=#00364a;" parent="adHe35JYQzBacKlXErem-5" vertex="1">
          <mxGeometry y="92" width="204" height="26" as="geometry" />
        </mxCell>
        <mxCell id="NCuWdFcefo5cONYe_Eqj-17" value="+ Login()" style="text;align=left;verticalAlign=top;spacingLeft=4;spacingRight=4;overflow=hidden;rotatable=0;points=[[0,0.5],[1,0.5]];portConstraint=eastwest;rounded=0;shadow=0;html=0;fontColor=#00364a;" parent="adHe35JYQzBacKlXErem-5" vertex="1">
          <mxGeometry y="118" width="204" height="26" as="geometry" />
        </mxCell>
        <mxCell id="NCuWdFcefo5cONYe_Eqj-13" value="1" style="text;html=1;align=center;verticalAlign=middle;resizable=0;points=[];autosize=1;strokeColor=none;fillColor=none;" parent="1" vertex="1">
          <mxGeometry x="-584" y="-2692" width="30" height="30" as="geometry" />
        </mxCell>
        <mxCell id="NCuWdFcefo5cONYe_Eqj-37" value="1" style="text;html=1;align=center;verticalAlign=middle;resizable=0;points=[];autosize=1;strokeColor=none;fillColor=none;" parent="1" vertex="1">
          <mxGeometry x="-1348" y="-2494" width="30" height="30" as="geometry" />
        </mxCell>
        <mxCell id="NCuWdFcefo5cONYe_Eqj-38" value="" style="endArrow=none;html=1;rounded=0;" parent="1" edge="1">
          <mxGeometry relative="1" as="geometry">
            <mxPoint x="-1086" y="-2560" as="sourcePoint" />
            <mxPoint x="-886" y="-2560" as="targetPoint" />
          </mxGeometry>
        </mxCell>
        <mxCell id="NCuWdFcefo5cONYe_Eqj-39" value="*" style="edgeLabel;html=1;align=center;verticalAlign=middle;resizable=0;points=[];" parent="NCuWdFcefo5cONYe_Eqj-38" vertex="1" connectable="0">
          <mxGeometry x="-0.015" y="2" relative="1" as="geometry">
            <mxPoint as="offset" />
          </mxGeometry>
        </mxCell>
        <mxCell id="NCuWdFcefo5cONYe_Eqj-40" value="" style="endArrow=none;html=1;rounded=0;exitX=-0.005;exitY=-0.143;exitDx=0;exitDy=0;exitPerimeter=0;entryX=0.525;entryY=1.031;entryDx=0;entryDy=0;entryPerimeter=0;" parent="1" source="JYmju7sdqxkonGuVafDF-23" target="wLcgSWEHZ2XCq0r8zkWl-32" edge="1">
          <mxGeometry relative="1" as="geometry">
            <mxPoint x="-960" y="-2082" as="sourcePoint" />
            <mxPoint x="-780" y="-2360" as="targetPoint" />
            <Array as="points">
              <mxPoint x="-780" y="-2080" />
              <mxPoint x="-780" y="-2150" />
            </Array>
          </mxGeometry>
        </mxCell>
        <mxCell id="NCuWdFcefo5cONYe_Eqj-41" value="N" style="resizable=0;html=1;whiteSpace=wrap;align=right;verticalAlign=bottom;" parent="NCuWdFcefo5cONYe_Eqj-40" connectable="0" vertex="1">
          <mxGeometry x="1" relative="1" as="geometry">
            <mxPoint x="-4" y="20" as="offset" />
          </mxGeometry>
        </mxCell>
        <mxCell id="NCuWdFcefo5cONYe_Eqj-42" value="1" style="text;html=1;align=center;verticalAlign=middle;resizable=0;points=[];autosize=1;strokeColor=none;fillColor=none;" parent="1" vertex="1">
          <mxGeometry x="-657" y="-2103" width="30" height="30" as="geometry" />
        </mxCell>
        <mxCell id="NCuWdFcefo5cONYe_Eqj-43" value="" style="endArrow=none;html=1;rounded=0;entryX=0;entryY=0.5;entryDx=0;entryDy=0;exitX=0.163;exitY=-0.001;exitDx=0;exitDy=0;exitPerimeter=0;" parent="1" source="JYmju7sdqxkonGuVafDF-15" target="NCuWdFcefo5cONYe_Eqj-79" edge="1">
          <mxGeometry relative="1" as="geometry">
            <mxPoint x="-620" y="-2366" as="sourcePoint" />
            <mxPoint x="-460" y="-2366" as="targetPoint" />
            <Array as="points">
              <mxPoint x="-600" y="-2438" />
            </Array>
          </mxGeometry>
        </mxCell>
        <mxCell id="NCuWdFcefo5cONYe_Eqj-44" value="M" style="resizable=0;html=1;whiteSpace=wrap;align=left;verticalAlign=bottom;" parent="NCuWdFcefo5cONYe_Eqj-43" connectable="0" vertex="1">
          <mxGeometry x="-1" relative="1" as="geometry">
            <mxPoint x="2" as="offset" />
          </mxGeometry>
        </mxCell>
        <mxCell id="NCuWdFcefo5cONYe_Eqj-45" value="N" style="resizable=0;html=1;whiteSpace=wrap;align=right;verticalAlign=bottom;" parent="NCuWdFcefo5cONYe_Eqj-43" connectable="0" vertex="1">
          <mxGeometry x="1" relative="1" as="geometry" />
        </mxCell>
        <mxCell id="NCuWdFcefo5cONYe_Eqj-46" value="" style="endArrow=none;html=1;rounded=0;entryX=0.459;entryY=0.94;entryDx=0;entryDy=0;entryPerimeter=0;" parent="1" target="wLcgSWEHZ2XCq0r8zkWl-99" edge="1">
          <mxGeometry relative="1" as="geometry">
            <mxPoint x="-1105" y="-2540" as="sourcePoint" />
            <mxPoint x="-270" y="-2240" as="targetPoint" />
            <Array as="points">
              <mxPoint x="-1105" y="-1800" />
              <mxPoint x="-180" y="-1800" />
            </Array>
          </mxGeometry>
        </mxCell>
        <mxCell id="NCuWdFcefo5cONYe_Eqj-47" value="" style="endArrow=none;html=1;rounded=0;" parent="1" edge="1">
          <mxGeometry relative="1" as="geometry">
            <mxPoint x="-1153" y="-2861" as="sourcePoint" />
            <mxPoint x="-1153" y="-3046" as="targetPoint" />
          </mxGeometry>
        </mxCell>
        <mxCell id="NCuWdFcefo5cONYe_Eqj-48" value="" style="endArrow=none;html=1;rounded=0;entryX=1;entryY=0.5;entryDx=0;entryDy=0;exitX=0.386;exitY=1.118;exitDx=0;exitDy=0;exitPerimeter=0;" parent="1" source="hXaTUdFNADPDVRghAndI-21" target="wLcgSWEHZ2XCq0r8zkWl-101" edge="1">
          <mxGeometry relative="1" as="geometry">
            <mxPoint x="-180" y="-2740" as="sourcePoint" />
            <mxPoint x="-181" y="-2436" as="targetPoint" />
            <Array as="points">
              <mxPoint x="-180" y="-2494" />
            </Array>
          </mxGeometry>
        </mxCell>
        <mxCell id="NCuWdFcefo5cONYe_Eqj-49" value="1" style="resizable=0;html=1;whiteSpace=wrap;align=right;verticalAlign=bottom;" parent="NCuWdFcefo5cONYe_Eqj-48" connectable="0" vertex="1">
          <mxGeometry x="1" relative="1" as="geometry">
            <mxPoint x="12" as="offset" />
          </mxGeometry>
        </mxCell>
        <mxCell id="NCuWdFcefo5cONYe_Eqj-50" value="1" style="resizable=0;html=1;whiteSpace=wrap;align=right;verticalAlign=bottom;" parent="1" connectable="0" vertex="1">
          <mxGeometry x="-331.7142857142858" y="-2578" as="geometry">
            <mxPoint x="149" y="-163" as="offset" />
          </mxGeometry>
        </mxCell>
        <mxCell id="NCuWdFcefo5cONYe_Eqj-51" value="" style="endArrow=none;html=1;rounded=0;entryX=1;entryY=0.5;entryDx=0;entryDy=0;exitX=0.998;exitY=0.809;exitDx=0;exitDy=0;exitPerimeter=0;" parent="1" source="JYmju7sdqxkonGuVafDF-20" edge="1">
          <mxGeometry relative="1" as="geometry">
            <mxPoint x="130" y="-1978" as="sourcePoint" />
            <mxPoint x="-56.000000000000455" y="-2788" as="targetPoint" />
            <Array as="points">
              <mxPoint x="190" y="-2137" />
              <mxPoint x="190" y="-2788" />
            </Array>
          </mxGeometry>
        </mxCell>
        <mxCell id="NCuWdFcefo5cONYe_Eqj-52" value="1" style="resizable=0;html=1;whiteSpace=wrap;align=right;verticalAlign=bottom;" parent="NCuWdFcefo5cONYe_Eqj-51" connectable="0" vertex="1">
          <mxGeometry x="1" relative="1" as="geometry">
            <mxPoint x="12" as="offset" />
          </mxGeometry>
        </mxCell>
        <mxCell id="NCuWdFcefo5cONYe_Eqj-53" value="1" style="text;html=1;align=center;verticalAlign=middle;resizable=0;points=[];autosize=1;strokeColor=none;fillColor=none;" parent="1" vertex="1">
          <mxGeometry x="-435" y="-2164" width="30" height="30" as="geometry" />
        </mxCell>
        <mxCell id="NCuWdFcefo5cONYe_Eqj-54" value="" style="endArrow=none;html=1;rounded=0;entryX=0.5;entryY=0;entryDx=0;entryDy=0;exitX=0;exitY=0.5;exitDx=0;exitDy=0;" parent="1" source="JYmju7sdqxkonGuVafDF-6" target="hXaTUdFNADPDVRghAndI-11" edge="1">
          <mxGeometry relative="1" as="geometry">
            <mxPoint x="-380" y="-3050" as="sourcePoint" />
            <mxPoint x="-220" y="-3050" as="targetPoint" />
            <Array as="points">
              <mxPoint x="-1410" y="-2326" />
              <mxPoint x="-1410" y="-3230" />
              <mxPoint x="-158" y="-3230" />
            </Array>
          </mxGeometry>
        </mxCell>
        <mxCell id="NCuWdFcefo5cONYe_Eqj-55" value="1" style="resizable=0;html=1;whiteSpace=wrap;align=right;verticalAlign=bottom;" parent="NCuWdFcefo5cONYe_Eqj-54" connectable="0" vertex="1">
          <mxGeometry x="1" relative="1" as="geometry">
            <mxPoint x="-4" as="offset" />
          </mxGeometry>
        </mxCell>
        <mxCell id="NCuWdFcefo5cONYe_Eqj-56" value="1" style="text;html=1;align=center;verticalAlign=middle;resizable=0;points=[];autosize=1;strokeColor=none;fillColor=none;" parent="1" vertex="1">
          <mxGeometry x="-1362" y="-2350" width="30" height="30" as="geometry" />
        </mxCell>
        <mxCell id="NCuWdFcefo5cONYe_Eqj-57" value="&lt;&lt;Entity&gt;&gt;&#xa;Nurse" style="swimlane;fontStyle=0;align=center;verticalAlign=top;childLayout=stackLayout;horizontal=1;startSize=40;horizontalStack=0;resizeParent=1;resizeLast=0;collapsible=1;marginBottom=0;rounded=0;shadow=0;strokeWidth=1;fillColor=#bac8d3;strokeColor=#23445d;fontColor=#00364a;" parent="1" vertex="1">
          <mxGeometry x="-1030" y="-2219" width="204" height="350" as="geometry">
            <mxRectangle x="550" y="140" width="160" height="26" as="alternateBounds" />
          </mxGeometry>
        </mxCell>
        <mxCell id="NCuWdFcefo5cONYe_Eqj-58" value="- nurseID : int" style="text;align=left;verticalAlign=top;spacingLeft=4;spacingRight=4;overflow=hidden;rotatable=0;points=[[0,0.5],[1,0.5]];portConstraint=eastwest;rounded=0;shadow=0;html=0;fontColor=#00364a;" parent="NCuWdFcefo5cONYe_Eqj-57" vertex="1">
          <mxGeometry y="40" width="204" height="26" as="geometry" />
        </mxCell>
        <mxCell id="NCuWdFcefo5cONYe_Eqj-59" value="- name : String" style="text;align=left;verticalAlign=top;spacingLeft=4;spacingRight=4;overflow=hidden;rotatable=0;points=[[0,0.5],[1,0.5]];portConstraint=eastwest;rounded=0;shadow=0;html=0;fontColor=#00364a;" parent="NCuWdFcefo5cONYe_Eqj-57" vertex="1">
          <mxGeometry y="66" width="204" height="26" as="geometry" />
        </mxCell>
        <mxCell id="NCuWdFcefo5cONYe_Eqj-69" value="- specialization : String" style="text;align=left;verticalAlign=top;spacingLeft=4;spacingRight=4;overflow=hidden;rotatable=0;points=[[0,0.5],[1,0.5]];portConstraint=eastwest;rounded=0;shadow=0;html=0;fontColor=#00364a;" parent="NCuWdFcefo5cONYe_Eqj-57" vertex="1">
          <mxGeometry y="92" width="204" height="26" as="geometry" />
        </mxCell>
        <mxCell id="NCuWdFcefo5cONYe_Eqj-60" value="" style="line;html=1;strokeWidth=1;align=left;verticalAlign=middle;spacingTop=-1;spacingLeft=3;spacingRight=3;rotatable=0;labelPosition=right;points=[];portConstraint=eastwest;fontColor=#00364a;" parent="NCuWdFcefo5cONYe_Eqj-57" vertex="1">
          <mxGeometry y="118" width="204" height="8" as="geometry" />
        </mxCell>
        <mxCell id="NCuWdFcefo5cONYe_Eqj-61" value="+ Nurse(int, String, String)" style="text;align=left;verticalAlign=top;spacingLeft=4;spacingRight=4;overflow=hidden;rotatable=0;points=[[0,0.5],[1,0.5]];portConstraint=eastwest;fontColor=#00364a;" parent="NCuWdFcefo5cONYe_Eqj-57" vertex="1">
          <mxGeometry y="126" width="204" height="28" as="geometry" />
        </mxCell>
        <mxCell id="NCuWdFcefo5cONYe_Eqj-62" value="+ setNurseID(int)" style="text;align=left;verticalAlign=top;spacingLeft=4;spacingRight=4;overflow=hidden;rotatable=0;points=[[0,0.5],[1,0.5]];portConstraint=eastwest;fontColor=#00364a;" parent="NCuWdFcefo5cONYe_Eqj-57" vertex="1">
          <mxGeometry y="154" width="204" height="28" as="geometry" />
        </mxCell>
        <mxCell id="NCuWdFcefo5cONYe_Eqj-63" value="+ getNurseID()" style="text;align=left;verticalAlign=top;spacingLeft=4;spacingRight=4;overflow=hidden;rotatable=0;points=[[0,0.5],[1,0.5]];portConstraint=eastwest;fontColor=#00364a;" parent="NCuWdFcefo5cONYe_Eqj-57" vertex="1">
          <mxGeometry y="182" width="204" height="28" as="geometry" />
        </mxCell>
        <mxCell id="NCuWdFcefo5cONYe_Eqj-64" value="+ setName(String)" style="text;align=left;verticalAlign=top;spacingLeft=4;spacingRight=4;overflow=hidden;rotatable=0;points=[[0,0.5],[1,0.5]];portConstraint=eastwest;fontColor=#00364a;" parent="NCuWdFcefo5cONYe_Eqj-57" vertex="1">
          <mxGeometry y="210" width="204" height="28" as="geometry" />
        </mxCell>
        <mxCell id="NCuWdFcefo5cONYe_Eqj-65" value="+ getName()" style="text;align=left;verticalAlign=top;spacingLeft=4;spacingRight=4;overflow=hidden;rotatable=0;points=[[0,0.5],[1,0.5]];portConstraint=eastwest;fontColor=#00364a;" parent="NCuWdFcefo5cONYe_Eqj-57" vertex="1">
          <mxGeometry y="238" width="204" height="28" as="geometry" />
        </mxCell>
        <mxCell id="NCuWdFcefo5cONYe_Eqj-67" value="+ setSpecialization()" style="text;align=left;verticalAlign=top;spacingLeft=4;spacingRight=4;overflow=hidden;rotatable=0;points=[[0,0.5],[1,0.5]];portConstraint=eastwest;fontColor=#00364a;" parent="NCuWdFcefo5cONYe_Eqj-57" vertex="1">
          <mxGeometry y="266" width="204" height="28" as="geometry" />
        </mxCell>
        <mxCell id="NCuWdFcefo5cONYe_Eqj-71" value="+ getSpecialization()" style="text;align=left;verticalAlign=top;spacingLeft=4;spacingRight=4;overflow=hidden;rotatable=0;points=[[0,0.5],[1,0.5]];portConstraint=eastwest;fontColor=#00364a;" parent="NCuWdFcefo5cONYe_Eqj-57" vertex="1">
          <mxGeometry y="294" width="204" height="28" as="geometry" />
        </mxCell>
        <mxCell id="NCuWdFcefo5cONYe_Eqj-72" value="+ patientAssigment()&#xa;&#xa;" style="text;align=left;verticalAlign=top;spacingLeft=4;spacingRight=4;overflow=hidden;rotatable=0;points=[[0,0.5],[1,0.5]];portConstraint=eastwest;fontColor=#00364a;" parent="NCuWdFcefo5cONYe_Eqj-57" vertex="1">
          <mxGeometry y="322" width="204" height="28" as="geometry" />
        </mxCell>
        <mxCell id="NCuWdFcefo5cONYe_Eqj-74" value="" style="endArrow=none;html=1;rounded=0;exitX=0.995;exitY=0.135;exitDx=0;exitDy=0;exitPerimeter=0;entryX=0.887;entryY=1.143;entryDx=0;entryDy=0;entryPerimeter=0;" parent="1" source="NCuWdFcefo5cONYe_Eqj-67" target="NCuWdFcefo5cONYe_Eqj-79" edge="1">
          <mxGeometry relative="1" as="geometry">
            <mxPoint x="-825.1640000000002" y="-1896.5439999999999" as="sourcePoint" />
            <mxPoint x="-381" y="-2340" as="targetPoint" />
            <Array as="points">
              <mxPoint x="-381" y="-1950" />
            </Array>
          </mxGeometry>
        </mxCell>
        <mxCell id="NCuWdFcefo5cONYe_Eqj-75" value="N" style="resizable=0;html=1;whiteSpace=wrap;align=right;verticalAlign=bottom;" parent="NCuWdFcefo5cONYe_Eqj-74" connectable="0" vertex="1">
          <mxGeometry x="1" relative="1" as="geometry">
            <mxPoint x="-4" y="20" as="offset" />
          </mxGeometry>
        </mxCell>
        <mxCell id="NCuWdFcefo5cONYe_Eqj-76" value="1" style="text;html=1;align=center;verticalAlign=middle;resizable=0;points=[];autosize=1;strokeColor=none;fillColor=none;" parent="1" vertex="1">
          <mxGeometry x="-834" y="-1972" width="30" height="30" as="geometry" />
        </mxCell>
        <mxCell id="NCuWdFcefo5cONYe_Eqj-80" value="&lt;&lt;Entity&gt;&gt;&#xa;Report" style="swimlane;fontStyle=0;align=center;verticalAlign=top;childLayout=stackLayout;horizontal=1;startSize=40;horizontalStack=0;resizeParent=1;resizeLast=0;collapsible=1;marginBottom=0;rounded=0;shadow=0;strokeWidth=1;fillColor=#bac8d3;strokeColor=#23445d;fontColor=#00364a;" parent="1" vertex="1">
          <mxGeometry x="-20" y="-3191" width="204" height="382" as="geometry">
            <mxRectangle x="550" y="140" width="160" height="26" as="alternateBounds" />
          </mxGeometry>
        </mxCell>
        <mxCell id="NCuWdFcefo5cONYe_Eqj-81" value="- patient : Patient" style="text;align=left;verticalAlign=top;spacingLeft=4;spacingRight=4;overflow=hidden;rotatable=0;points=[[0,0.5],[1,0.5]];portConstraint=eastwest;rounded=0;shadow=0;html=0;fontColor=#00364a;" parent="NCuWdFcefo5cONYe_Eqj-80" vertex="1">
          <mxGeometry y="40" width="204" height="26" as="geometry" />
        </mxCell>
        <mxCell id="NCuWdFcefo5cONYe_Eqj-82" value="- nurse : Nurse" style="text;align=left;verticalAlign=top;spacingLeft=4;spacingRight=4;overflow=hidden;rotatable=0;points=[[0,0.5],[1,0.5]];portConstraint=eastwest;rounded=0;shadow=0;html=0;fontColor=#00364a;" parent="NCuWdFcefo5cONYe_Eqj-80" vertex="1">
          <mxGeometry y="66" width="204" height="26" as="geometry" />
        </mxCell>
        <mxCell id="0kxpaT6RJMtvkMURH7MP-3" value="- appointment : BookAppointment" style="text;align=left;verticalAlign=top;spacingLeft=4;spacingRight=4;overflow=hidden;rotatable=0;points=[[0,0.5],[1,0.5]];portConstraint=eastwest;rounded=0;shadow=0;html=0;fontColor=#00364a;" parent="NCuWdFcefo5cONYe_Eqj-80" vertex="1">
          <mxGeometry y="92" width="204" height="26" as="geometry" />
        </mxCell>
        <mxCell id="NCuWdFcefo5cONYe_Eqj-83" value="- date : String" style="text;align=left;verticalAlign=top;spacingLeft=4;spacingRight=4;overflow=hidden;rotatable=0;points=[[0,0.5],[1,0.5]];portConstraint=eastwest;rounded=0;shadow=0;html=0;fontColor=#00364a;" parent="NCuWdFcefo5cONYe_Eqj-80" vertex="1">
          <mxGeometry y="118" width="204" height="30" as="geometry" />
        </mxCell>
        <mxCell id="0kxpaT6RJMtvkMURH7MP-2" value="- tite : String" style="text;align=left;verticalAlign=top;spacingLeft=4;spacingRight=4;overflow=hidden;rotatable=0;points=[[0,0.5],[1,0.5]];portConstraint=eastwest;rounded=0;shadow=0;html=0;fontColor=#00364a;" parent="NCuWdFcefo5cONYe_Eqj-80" vertex="1">
          <mxGeometry y="148" width="204" height="30" as="geometry" />
        </mxCell>
        <mxCell id="NCuWdFcefo5cONYe_Eqj-84" value="" style="line;html=1;strokeWidth=1;align=left;verticalAlign=middle;spacingTop=-1;spacingLeft=3;spacingRight=3;rotatable=0;labelPosition=right;points=[];portConstraint=eastwest;fontColor=#00364a;" parent="NCuWdFcefo5cONYe_Eqj-80" vertex="1">
          <mxGeometry y="178" width="204" height="8" as="geometry" />
        </mxCell>
        <mxCell id="NCuWdFcefo5cONYe_Eqj-85" value="+ Report()" style="text;align=left;verticalAlign=top;spacingLeft=4;spacingRight=4;overflow=hidden;rotatable=0;points=[[0,0.5],[1,0.5]];portConstraint=eastwest;fontColor=#00364a;" parent="NCuWdFcefo5cONYe_Eqj-80" vertex="1">
          <mxGeometry y="186" width="204" height="28" as="geometry" />
        </mxCell>
        <mxCell id="NCuWdFcefo5cONYe_Eqj-88" value="+ setDate(String)" style="text;align=left;verticalAlign=top;spacingLeft=4;spacingRight=4;overflow=hidden;rotatable=0;points=[[0,0.5],[1,0.5]];portConstraint=eastwest;fontColor=#00364a;" parent="NCuWdFcefo5cONYe_Eqj-80" vertex="1">
          <mxGeometry y="214" width="204" height="28" as="geometry" />
        </mxCell>
        <mxCell id="NCuWdFcefo5cONYe_Eqj-92" value="+ getDate()" style="text;align=left;verticalAlign=top;spacingLeft=4;spacingRight=4;overflow=hidden;rotatable=0;points=[[0,0.5],[1,0.5]];portConstraint=eastwest;fontColor=#00364a;" parent="NCuWdFcefo5cONYe_Eqj-80" vertex="1">
          <mxGeometry y="242" width="204" height="28" as="geometry" />
        </mxCell>
        <mxCell id="0kxpaT6RJMtvkMURH7MP-1" value="+ generateReport()" style="text;align=left;verticalAlign=top;spacingLeft=4;spacingRight=4;overflow=hidden;rotatable=0;points=[[0,0.5],[1,0.5]];portConstraint=eastwest;fontColor=#00364a;" parent="NCuWdFcefo5cONYe_Eqj-80" vertex="1">
          <mxGeometry y="270" width="204" height="28" as="geometry" />
        </mxCell>
        <mxCell id="NCuWdFcefo5cONYe_Eqj-86" value="+ generateNurseReport()" style="text;align=left;verticalAlign=top;spacingLeft=4;spacingRight=4;overflow=hidden;rotatable=0;points=[[0,0.5],[1,0.5]];portConstraint=eastwest;fontColor=#00364a;" parent="NCuWdFcefo5cONYe_Eqj-80" vertex="1">
          <mxGeometry y="298" width="204" height="28" as="geometry" />
        </mxCell>
        <mxCell id="_Yf7NFdis905VVjhMTxZ-31" value="+ generateAppointmentReport()" style="text;align=left;verticalAlign=top;spacingLeft=4;spacingRight=4;overflow=hidden;rotatable=0;points=[[0,0.5],[1,0.5]];portConstraint=eastwest;fontColor=#00364a;" parent="NCuWdFcefo5cONYe_Eqj-80" vertex="1">
          <mxGeometry y="326" width="204" height="28" as="geometry" />
        </mxCell>
        <mxCell id="_Yf7NFdis905VVjhMTxZ-30" value="+ generatePatientReport()" style="text;align=left;verticalAlign=top;spacingLeft=4;spacingRight=4;overflow=hidden;rotatable=0;points=[[0,0.5],[1,0.5]];portConstraint=eastwest;fontColor=#00364a;" parent="NCuWdFcefo5cONYe_Eqj-80" vertex="1">
          <mxGeometry y="354" width="204" height="28" as="geometry" />
        </mxCell>
        <mxCell id="NCuWdFcefo5cONYe_Eqj-93" value="" style="endArrow=none;html=1;rounded=0;entryX=1;entryY=0.5;entryDx=0;entryDy=0;exitX=1;exitY=0.5;exitDx=0;exitDy=0;" parent="1" source="JYmju7sdqxkonGuVafDF-23" edge="1">
          <mxGeometry relative="1" as="geometry">
            <mxPoint x="-428" y="-1994" as="sourcePoint" />
            <mxPoint x="184.00000000000045" y="-3019" as="targetPoint" />
            <Array as="points">
              <mxPoint x="240" y="-2062" />
              <mxPoint x="240" y="-3020" />
            </Array>
          </mxGeometry>
        </mxCell>
        <mxCell id="NCuWdFcefo5cONYe_Eqj-94" value="M" style="resizable=0;html=1;whiteSpace=wrap;align=right;verticalAlign=bottom;" parent="NCuWdFcefo5cONYe_Eqj-93" connectable="0" vertex="1">
          <mxGeometry x="1" relative="1" as="geometry">
            <mxPoint x="14" as="offset" />
          </mxGeometry>
        </mxCell>
        <mxCell id="NCuWdFcefo5cONYe_Eqj-95" value="1" style="text;html=1;align=center;verticalAlign=middle;resizable=0;points=[];autosize=1;strokeColor=none;fillColor=none;" parent="1" vertex="1">
          <mxGeometry x="-436" y="-2086" width="30" height="30" as="geometry" />
        </mxCell>
        <mxCell id="NCuWdFcefo5cONYe_Eqj-99" value="" style="endArrow=diamondThin;endFill=0;endSize=24;html=1;rounded=0;entryX=0;entryY=0.5;entryDx=0;entryDy=0;exitX=0;exitY=0;exitDx=0;exitDy=0;" parent="1" source="JYmju7sdqxkonGuVafDF-1" target="wLcgSWEHZ2XCq0r8zkWl-24" edge="1">
          <mxGeometry width="160" relative="1" as="geometry">
            <mxPoint x="-927" y="-2740" as="sourcePoint" />
            <mxPoint x="-1050" y="-2740" as="targetPoint" />
            <Array as="points">
              <mxPoint x="-1340" y="-2720" />
            </Array>
          </mxGeometry>
        </mxCell>
        <mxCell id="_Yf7NFdis905VVjhMTxZ-1" value="&lt;&lt;Entity&gt;&gt;&#xa;Complaint" style="swimlane;fontStyle=0;align=center;verticalAlign=top;childLayout=stackLayout;horizontal=1;startSize=40;horizontalStack=0;resizeParent=1;resizeLast=0;collapsible=1;marginBottom=0;rounded=0;shadow=0;strokeWidth=1;fillColor=#bac8d3;strokeColor=#23445d;fontColor=#00364a;" parent="1" vertex="1">
          <mxGeometry x="-60" y="-2715" width="204" height="294" as="geometry">
            <mxRectangle x="110" y="-2030" width="160" height="26" as="alternateBounds" />
          </mxGeometry>
        </mxCell>
        <mxCell id="_Yf7NFdis905VVjhMTxZ-32" value="- patient : Patient" style="text;align=left;verticalAlign=top;spacingLeft=4;spacingRight=4;overflow=hidden;rotatable=0;points=[[0,0.5],[1,0.5]];portConstraint=eastwest;rounded=0;shadow=0;html=0;fontColor=#00364a;" parent="_Yf7NFdis905VVjhMTxZ-1" vertex="1">
          <mxGeometry y="40" width="204" height="26" as="geometry" />
        </mxCell>
        <mxCell id="_Yf7NFdis905VVjhMTxZ-3" value="- date : String" style="text;align=left;verticalAlign=top;spacingLeft=4;spacingRight=4;overflow=hidden;rotatable=0;points=[[0,0.5],[1,0.5]];portConstraint=eastwest;rounded=0;shadow=0;html=0;fontColor=#00364a;" parent="_Yf7NFdis905VVjhMTxZ-1" vertex="1">
          <mxGeometry y="66" width="204" height="26" as="geometry" />
        </mxCell>
        <mxCell id="_Yf7NFdis905VVjhMTxZ-44" value="- description : String" style="text;align=left;verticalAlign=top;spacingLeft=4;spacingRight=4;overflow=hidden;rotatable=0;points=[[0,0.5],[1,0.5]];portConstraint=eastwest;rounded=0;shadow=0;html=0;fontColor=#00364a;" parent="_Yf7NFdis905VVjhMTxZ-1" vertex="1">
          <mxGeometry y="92" width="204" height="26" as="geometry" />
        </mxCell>
        <mxCell id="_Yf7NFdis905VVjhMTxZ-46" value="- handled : boolean" style="text;align=left;verticalAlign=top;spacingLeft=4;spacingRight=4;overflow=hidden;rotatable=0;points=[[0,0.5],[1,0.5]];portConstraint=eastwest;rounded=0;shadow=0;html=0;fontColor=#00364a;" parent="_Yf7NFdis905VVjhMTxZ-1" vertex="1">
          <mxGeometry y="118" width="204" height="26" as="geometry" />
        </mxCell>
        <mxCell id="_Yf7NFdis905VVjhMTxZ-4" value="" style="line;html=1;strokeWidth=1;align=left;verticalAlign=middle;spacingTop=-1;spacingLeft=3;spacingRight=3;rotatable=0;labelPosition=right;points=[];portConstraint=eastwest;fontColor=#00364a;" parent="_Yf7NFdis905VVjhMTxZ-1" vertex="1">
          <mxGeometry y="144" width="204" height="8" as="geometry" />
        </mxCell>
        <mxCell id="_Yf7NFdis905VVjhMTxZ-5" value="+ Complaint(Patient, String, String)" style="text;align=left;verticalAlign=top;spacingLeft=4;spacingRight=4;overflow=hidden;rotatable=0;points=[[0,0.5],[1,0.5]];portConstraint=eastwest;fontColor=#00364a;" parent="_Yf7NFdis905VVjhMTxZ-1" vertex="1">
          <mxGeometry y="152" width="204" height="28" as="geometry" />
        </mxCell>
        <mxCell id="_Yf7NFdis905VVjhMTxZ-6" value="+ setDescription(String)" style="text;align=left;verticalAlign=top;spacingLeft=4;spacingRight=4;overflow=hidden;rotatable=0;points=[[0,0.5],[1,0.5]];portConstraint=eastwest;fontColor=#00364a;" parent="_Yf7NFdis905VVjhMTxZ-1" vertex="1">
          <mxGeometry y="180" width="204" height="28" as="geometry" />
        </mxCell>
        <mxCell id="_Yf7NFdis905VVjhMTxZ-45" value="+ getDescription()" style="text;align=left;verticalAlign=top;spacingLeft=4;spacingRight=4;overflow=hidden;rotatable=0;points=[[0,0.5],[1,0.5]];portConstraint=eastwest;fontColor=#00364a;" parent="_Yf7NFdis905VVjhMTxZ-1" vertex="1">
          <mxGeometry y="208" width="204" height="28" as="geometry" />
        </mxCell>
        <mxCell id="_Yf7NFdis905VVjhMTxZ-11" value="+ handleComplaint()&#xa;&#xa;" style="text;align=left;verticalAlign=top;spacingLeft=4;spacingRight=4;overflow=hidden;rotatable=0;points=[[0,0.5],[1,0.5]];portConstraint=eastwest;fontColor=#00364a;" parent="_Yf7NFdis905VVjhMTxZ-1" vertex="1">
          <mxGeometry y="236" width="204" height="28" as="geometry" />
        </mxCell>
        <mxCell id="hXaTUdFNADPDVRghAndI-25" value="+ writeComplaint()&#xa;" style="text;align=left;verticalAlign=top;spacingLeft=4;spacingRight=4;overflow=hidden;rotatable=0;points=[[0,0.5],[1,0.5]];portConstraint=eastwest;rounded=0;shadow=0;html=0;fontColor=#00364a;" parent="_Yf7NFdis905VVjhMTxZ-1" vertex="1">
          <mxGeometry y="264" width="204" height="30" as="geometry" />
        </mxCell>
        <mxCell id="_Yf7NFdis905VVjhMTxZ-12" value="&lt;&lt;Entity&gt;&gt;&#xa;Clinic" style="swimlane;fontStyle=0;align=center;verticalAlign=top;childLayout=stackLayout;horizontal=1;startSize=40;horizontalStack=0;resizeParent=1;resizeLast=0;collapsible=1;marginBottom=0;rounded=0;shadow=0;strokeWidth=1;fillColor=#bac8d3;strokeColor=#23445d;fontColor=#00364a;" parent="1" vertex="1">
          <mxGeometry x="-149" y="-2031" width="204" height="320" as="geometry">
            <mxRectangle x="550" y="140" width="160" height="26" as="alternateBounds" />
          </mxGeometry>
        </mxCell>
        <mxCell id="_Yf7NFdis905VVjhMTxZ-14" value="- name : String" style="text;align=left;verticalAlign=top;spacingLeft=4;spacingRight=4;overflow=hidden;rotatable=0;points=[[0,0.5],[1,0.5]];portConstraint=eastwest;rounded=0;shadow=0;html=0;fontColor=#00364a;" parent="_Yf7NFdis905VVjhMTxZ-12" vertex="1">
          <mxGeometry y="40" width="204" height="26" as="geometry" />
        </mxCell>
        <mxCell id="aG7t9tdlc3azRmRJKj2d-4" value="- phone : String" style="text;align=left;verticalAlign=top;spacingLeft=4;spacingRight=4;overflow=hidden;rotatable=0;points=[[0,0.5],[1,0.5]];portConstraint=eastwest;rounded=0;shadow=0;html=0;fontColor=#00364a;" parent="_Yf7NFdis905VVjhMTxZ-12" vertex="1">
          <mxGeometry y="66" width="204" height="26" as="geometry" />
        </mxCell>
        <mxCell id="_Yf7NFdis905VVjhMTxZ-48" value="- location : String" style="text;align=left;verticalAlign=top;spacingLeft=4;spacingRight=4;overflow=hidden;rotatable=0;points=[[0,0.5],[1,0.5]];portConstraint=eastwest;rounded=0;shadow=0;html=0;fontColor=#00364a;" parent="_Yf7NFdis905VVjhMTxZ-12" vertex="1">
          <mxGeometry y="92" width="204" height="26" as="geometry" />
        </mxCell>
        <mxCell id="_Yf7NFdis905VVjhMTxZ-49" value="- specialties : ArrayList &lt;String&gt;" style="text;align=left;verticalAlign=top;spacingLeft=4;spacingRight=4;overflow=hidden;rotatable=0;points=[[0,0.5],[1,0.5]];portConstraint=eastwest;rounded=0;shadow=0;html=0;fontColor=#00364a;" parent="_Yf7NFdis905VVjhMTxZ-12" vertex="1">
          <mxGeometry y="118" width="204" height="26" as="geometry" />
        </mxCell>
        <mxCell id="_Yf7NFdis905VVjhMTxZ-15" value="" style="line;html=1;strokeWidth=1;align=left;verticalAlign=middle;spacingTop=-1;spacingLeft=3;spacingRight=3;rotatable=0;labelPosition=right;points=[];portConstraint=eastwest;fontColor=#00364a;" parent="_Yf7NFdis905VVjhMTxZ-12" vertex="1">
          <mxGeometry y="144" width="204" height="8" as="geometry" />
        </mxCell>
        <mxCell id="_Yf7NFdis905VVjhMTxZ-16" value="+ Clinc(String, String, String)" style="text;align=left;verticalAlign=top;spacingLeft=4;spacingRight=4;overflow=hidden;rotatable=0;points=[[0,0.5],[1,0.5]];portConstraint=eastwest;fontColor=#00364a;" parent="_Yf7NFdis905VVjhMTxZ-12" vertex="1">
          <mxGeometry y="152" width="204" height="28" as="geometry" />
        </mxCell>
        <mxCell id="_Yf7NFdis905VVjhMTxZ-19" value="+ setName(String)" style="text;align=left;verticalAlign=top;spacingLeft=4;spacingRight=4;overflow=hidden;rotatable=0;points=[[0,0.5],[1,0.5]];portConstraint=eastwest;fontColor=#00364a;" parent="_Yf7NFdis905VVjhMTxZ-12" vertex="1">
          <mxGeometry y="180" width="204" height="28" as="geometry" />
        </mxCell>
        <mxCell id="_Yf7NFdis905VVjhMTxZ-20" value="+ getName()" style="text;align=left;verticalAlign=top;spacingLeft=4;spacingRight=4;overflow=hidden;rotatable=0;points=[[0,0.5],[1,0.5]];portConstraint=eastwest;fontColor=#00364a;" parent="_Yf7NFdis905VVjhMTxZ-12" vertex="1">
          <mxGeometry y="208" width="204" height="28" as="geometry" />
        </mxCell>
        <mxCell id="_Yf7NFdis905VVjhMTxZ-51" value="+ chooseClinic()" style="text;align=left;verticalAlign=top;spacingLeft=4;spacingRight=4;overflow=hidden;rotatable=0;points=[[0,0.5],[1,0.5]];portConstraint=eastwest;fontColor=#00364a;" parent="_Yf7NFdis905VVjhMTxZ-12" vertex="1">
          <mxGeometry y="236" width="204" height="28" as="geometry" />
        </mxCell>
        <mxCell id="_Yf7NFdis905VVjhMTxZ-52" value="+ searchSpecialty()" style="text;align=left;verticalAlign=top;spacingLeft=4;spacingRight=4;overflow=hidden;rotatable=0;points=[[0,0.5],[1,0.5]];portConstraint=eastwest;fontColor=#00364a;" parent="_Yf7NFdis905VVjhMTxZ-12" vertex="1">
          <mxGeometry y="264" width="204" height="28" as="geometry" />
        </mxCell>
        <mxCell id="aG7t9tdlc3azRmRJKj2d-5" value="+ addSpecialty()" style="text;align=left;verticalAlign=top;spacingLeft=4;spacingRight=4;overflow=hidden;rotatable=0;points=[[0,0.5],[1,0.5]];portConstraint=eastwest;fontColor=#00364a;" parent="_Yf7NFdis905VVjhMTxZ-12" vertex="1">
          <mxGeometry y="292" width="204" height="28" as="geometry" />
        </mxCell>
        <mxCell id="_Yf7NFdis905VVjhMTxZ-23" value="N" style="text;html=1;align=center;verticalAlign=middle;resizable=0;points=[];autosize=1;strokeColor=none;fillColor=none;" parent="1" vertex="1">
          <mxGeometry x="-667" y="-2692" width="30" height="30" as="geometry" />
        </mxCell>
        <mxCell id="_Yf7NFdis905VVjhMTxZ-24" value="1" style="text;html=1;align=center;verticalAlign=middle;resizable=0;points=[];autosize=1;strokeColor=none;fillColor=none;" parent="1" vertex="1">
          <mxGeometry x="-760" y="-2948" width="30" height="30" as="geometry" />
        </mxCell>
        <mxCell id="_Yf7NFdis905VVjhMTxZ-25" value="1" style="text;html=1;align=center;verticalAlign=middle;resizable=0;points=[];autosize=1;strokeColor=none;fillColor=none;" parent="1" vertex="1">
          <mxGeometry x="-481" y="-2821" width="30" height="30" as="geometry" />
        </mxCell>
        <mxCell id="_Yf7NFdis905VVjhMTxZ-27" value="N" style="text;html=1;align=center;verticalAlign=middle;resizable=0;points=[];autosize=1;strokeColor=none;fillColor=none;" parent="1" vertex="1">
          <mxGeometry x="-934" y="-2745" width="30" height="30" as="geometry" />
        </mxCell>
        <mxCell id="0kxpaT6RJMtvkMURH7MP-4" value="" style="endArrow=none;html=1;rounded=0;exitX=1.007;exitY=0.077;exitDx=0;exitDy=0;exitPerimeter=0;" parent="1" edge="1">
          <mxGeometry width="50" height="50" relative="1" as="geometry">
            <mxPoint x="-427.5720000000001" y="-2101.844" as="sourcePoint" />
            <mxPoint x="39" y="-2420" as="targetPoint" />
            <Array as="points">
              <mxPoint x="39" y="-2101" />
            </Array>
          </mxGeometry>
        </mxCell>
        <mxCell id="0kxpaT6RJMtvkMURH7MP-5" value="1" style="text;html=1;align=center;verticalAlign=middle;resizable=0;points=[];autosize=1;strokeColor=none;fillColor=none;" parent="1" vertex="1">
          <mxGeometry x="-436" y="-2126" width="30" height="30" as="geometry" />
        </mxCell>
        <mxCell id="0kxpaT6RJMtvkMURH7MP-6" value="N" style="resizable=0;html=1;whiteSpace=wrap;align=right;verticalAlign=bottom;" parent="1" connectable="0" vertex="1">
          <mxGeometry x="35" y="-2403.0031733317674" as="geometry" />
        </mxCell>
        <mxCell id="0kxpaT6RJMtvkMURH7MP-7" value="&lt;&lt;Entity&gt;&gt;&#xa;Medicine" style="swimlane;fontStyle=0;align=center;verticalAlign=top;childLayout=stackLayout;horizontal=1;startSize=40;horizontalStack=0;resizeParent=1;resizeLast=0;collapsible=1;marginBottom=0;rounded=0;shadow=0;strokeWidth=1;fillColor=#bac8d3;strokeColor=#23445d;fontColor=#00364a;" parent="1" vertex="1">
          <mxGeometry x="-503" y="-3178" width="204" height="344" as="geometry">
            <mxRectangle x="550" y="140" width="160" height="26" as="alternateBounds" />
          </mxGeometry>
        </mxCell>
        <mxCell id="0kxpaT6RJMtvkMURH7MP-8" value="- name : String" style="text;align=left;verticalAlign=top;spacingLeft=4;spacingRight=4;overflow=hidden;rotatable=0;points=[[0,0.5],[1,0.5]];portConstraint=eastwest;fontColor=#00364a;" parent="0kxpaT6RJMtvkMURH7MP-7" vertex="1">
          <mxGeometry y="40" width="204" height="26" as="geometry" />
        </mxCell>
        <mxCell id="aG7t9tdlc3azRmRJKj2d-1" value="- phone : String" style="text;align=left;verticalAlign=top;spacingLeft=4;spacingRight=4;overflow=hidden;rotatable=0;points=[[0,0.5],[1,0.5]];portConstraint=eastwest;fontColor=#00364a;" parent="0kxpaT6RJMtvkMURH7MP-7" vertex="1">
          <mxGeometry y="66" width="204" height="26" as="geometry" />
        </mxCell>
        <mxCell id="0kxpaT6RJMtvkMURH7MP-23" value="- patient : Patient" style="text;align=left;verticalAlign=top;spacingLeft=4;spacingRight=4;overflow=hidden;rotatable=0;points=[[0,0.5],[1,0.5]];portConstraint=eastwest;rounded=0;shadow=0;html=0;fontColor=#00364a;" parent="0kxpaT6RJMtvkMURH7MP-7" vertex="1">
          <mxGeometry y="92" width="204" height="26" as="geometry" />
        </mxCell>
        <mxCell id="0kxpaT6RJMtvkMURH7MP-24" value="- doctor : Doctor" style="text;align=left;verticalAlign=top;spacingLeft=4;spacingRight=4;overflow=hidden;rotatable=0;points=[[0,0.5],[1,0.5]];portConstraint=eastwest;rounded=0;shadow=0;html=0;fontColor=#00364a;" parent="0kxpaT6RJMtvkMURH7MP-7" vertex="1">
          <mxGeometry y="118" width="204" height="30" as="geometry" />
        </mxCell>
        <mxCell id="0kxpaT6RJMtvkMURH7MP-9" value="- dosageForm : String" style="text;align=left;verticalAlign=top;spacingLeft=4;spacingRight=4;overflow=hidden;rotatable=0;points=[[0,0.5],[1,0.5]];portConstraint=eastwest;rounded=0;shadow=0;html=0;fontColor=#00364a;" parent="0kxpaT6RJMtvkMURH7MP-7" vertex="1">
          <mxGeometry y="148" width="204" height="26" as="geometry" />
        </mxCell>
        <mxCell id="0kxpaT6RJMtvkMURH7MP-21" value="- dosageStrength : String" style="text;align=left;verticalAlign=top;spacingLeft=4;spacingRight=4;overflow=hidden;rotatable=0;points=[[0,0.5],[1,0.5]];portConstraint=eastwest;rounded=0;shadow=0;html=0;fontColor=#00364a;" parent="0kxpaT6RJMtvkMURH7MP-7" vertex="1">
          <mxGeometry y="174" width="204" height="26" as="geometry" />
        </mxCell>
        <mxCell id="0kxpaT6RJMtvkMURH7MP-10" value="" style="line;html=1;strokeWidth=1;align=left;verticalAlign=middle;spacingTop=-1;spacingLeft=3;spacingRight=3;rotatable=0;labelPosition=right;points=[];portConstraint=eastwest;fontColor=#00364a;" parent="0kxpaT6RJMtvkMURH7MP-7" vertex="1">
          <mxGeometry y="200" width="204" height="8" as="geometry" />
        </mxCell>
        <mxCell id="0kxpaT6RJMtvkMURH7MP-11" value="+ Medicine()" style="text;align=left;verticalAlign=top;spacingLeft=4;spacingRight=4;overflow=hidden;rotatable=0;points=[[0,0.5],[1,0.5]];portConstraint=eastwest;fontColor=#00364a;" parent="0kxpaT6RJMtvkMURH7MP-7" vertex="1">
          <mxGeometry y="208" width="204" height="28" as="geometry" />
        </mxCell>
        <mxCell id="0kxpaT6RJMtvkMURH7MP-12" value="+ setName(String)" style="text;align=left;verticalAlign=top;spacingLeft=4;spacingRight=4;overflow=hidden;rotatable=0;points=[[0,0.5],[1,0.5]];portConstraint=eastwest;fontColor=#00364a;" parent="0kxpaT6RJMtvkMURH7MP-7" vertex="1">
          <mxGeometry y="236" width="204" height="28" as="geometry" />
        </mxCell>
        <mxCell id="0kxpaT6RJMtvkMURH7MP-22" value="+ getName()" style="text;align=left;verticalAlign=top;spacingLeft=4;spacingRight=4;overflow=hidden;rotatable=0;points=[[0,0.5],[1,0.5]];portConstraint=eastwest;fontColor=#00364a;" parent="0kxpaT6RJMtvkMURH7MP-7" vertex="1">
          <mxGeometry y="264" width="204" height="28" as="geometry" />
        </mxCell>
        <mxCell id="NCuWdFcefo5cONYe_Eqj-1" value="+ prescribeMedication()&#xa;" style="text;align=left;verticalAlign=top;spacingLeft=4;spacingRight=4;overflow=hidden;rotatable=0;points=[[0,0.5],[1,0.5]];portConstraint=eastwest;rounded=0;shadow=0;html=0;fontColor=#00364A;" parent="0kxpaT6RJMtvkMURH7MP-7" vertex="1">
          <mxGeometry y="292" width="204" height="24" as="geometry" />
        </mxCell>
        <mxCell id="NCuWdFcefo5cONYe_Eqj-68" value="+ medicineInformation()&#xa;&#xa;" style="text;align=left;verticalAlign=top;spacingLeft=4;spacingRight=4;overflow=hidden;rotatable=0;points=[[0,0.5],[1,0.5]];portConstraint=eastwest;fontColor=#00364a;" parent="0kxpaT6RJMtvkMURH7MP-7" vertex="1">
          <mxGeometry y="316" width="204" height="28" as="geometry" />
        </mxCell>
        <mxCell id="0kxpaT6RJMtvkMURH7MP-16" value="" style="endArrow=none;html=1;rounded=0;entryX=0.25;entryY=0;entryDx=0;entryDy=0;exitX=1;exitY=0.5;exitDx=0;exitDy=0;" parent="1" source="NCuWdFcefo5cONYe_Eqj-16" target="hXaTUdFNADPDVRghAndI-11" edge="1">
          <mxGeometry relative="1" as="geometry">
            <mxPoint x="-986" y="-2809" as="sourcePoint" />
            <mxPoint x="-786" y="-2809" as="targetPoint" />
            <Array as="points">
              <mxPoint x="-920" y="-2809" />
              <mxPoint x="-920" y="-3210" />
              <mxPoint x="-209" y="-3210" />
            </Array>
          </mxGeometry>
        </mxCell>
        <mxCell id="0kxpaT6RJMtvkMURH7MP-17" value="*" style="edgeLabel;html=1;align=center;verticalAlign=middle;resizable=0;points=[];" parent="0kxpaT6RJMtvkMURH7MP-16" vertex="1" connectable="0">
          <mxGeometry x="-0.015" y="2" relative="1" as="geometry">
            <mxPoint as="offset" />
          </mxGeometry>
        </mxCell>
        <mxCell id="0kxpaT6RJMtvkMURH7MP-18" value="" style="endArrow=none;html=1;rounded=0;entryX=0.5;entryY=1;entryDx=0;entryDy=0;exitX=-0.005;exitY=0.286;exitDx=0;exitDy=0;exitPerimeter=0;" parent="1" source="_Yf7NFdis905VVjhMTxZ-52" target="JYmju7sdqxkonGuVafDF-1" edge="1">
          <mxGeometry width="50" height="50" relative="1" as="geometry">
            <mxPoint x="-230" y="-1770" as="sourcePoint" />
            <mxPoint x="-1237" y="-2100" as="targetPoint" />
            <Array as="points">
              <mxPoint x="-1237" y="-1760" />
            </Array>
          </mxGeometry>
        </mxCell>
        <mxCell id="0kxpaT6RJMtvkMURH7MP-19" value="1" style="text;html=1;align=center;verticalAlign=middle;resizable=0;points=[];autosize=1;strokeColor=none;fillColor=none;" parent="1" vertex="1">
          <mxGeometry x="-180" y="-1788" width="30" height="30" as="geometry" />
        </mxCell>
        <mxCell id="0kxpaT6RJMtvkMURH7MP-20" value="N" style="resizable=0;html=1;whiteSpace=wrap;align=right;verticalAlign=bottom;" parent="1" connectable="0" vertex="1">
          <mxGeometry x="-765.9011567734588" y="-2365.001894956608" as="geometry">
            <mxPoint x="-475" y="264" as="offset" />
          </mxGeometry>
        </mxCell>
        <mxCell id="0kxpaT6RJMtvkMURH7MP-25" value="" style="endArrow=diamondThin;endFill=0;endSize=24;html=1;rounded=0;entryX=0.478;entryY=0.964;entryDx=0;entryDy=0;exitX=0.77;exitY=0;exitDx=0;exitDy=0;entryPerimeter=0;exitPerimeter=0;" parent="1" source="wLcgSWEHZ2XCq0r8zkWl-67" target="NCuWdFcefo5cONYe_Eqj-68" edge="1">
          <mxGeometry width="160" relative="1" as="geometry">
            <mxPoint x="-347" y="-2821" as="sourcePoint" />
            <mxPoint x="-470" y="-2821" as="targetPoint" />
          </mxGeometry>
        </mxCell>
        <mxCell id="0kxpaT6RJMtvkMURH7MP-26" value="1" style="text;html=1;align=center;verticalAlign=middle;resizable=0;points=[];autosize=1;strokeColor=none;fillColor=none;" parent="1" vertex="1">
          <mxGeometry x="-412" y="-2799" width="30" height="30" as="geometry" />
        </mxCell>
        <mxCell id="0kxpaT6RJMtvkMURH7MP-27" value="N" style="text;html=1;align=center;verticalAlign=middle;resizable=0;points=[];autosize=1;strokeColor=none;fillColor=none;" parent="1" vertex="1">
          <mxGeometry x="-405" y="-2840" width="30" height="30" as="geometry" />
        </mxCell>
        <mxCell id="0kxpaT6RJMtvkMURH7MP-28" value="" style="endArrow=diamondThin;endFill=0;endSize=24;html=1;rounded=0;entryX=0.5;entryY=0;entryDx=0;entryDy=0;exitX=0;exitY=0.5;exitDx=0;exitDy=0;" parent="1" source="JYmju7sdqxkonGuVafDF-9" target="0kxpaT6RJMtvkMURH7MP-7" edge="1">
          <mxGeometry width="160" relative="1" as="geometry">
            <mxPoint x="-412" y="-3223" as="sourcePoint" />
            <mxPoint x="-412" y="-3310" as="targetPoint" />
            <Array as="points">
              <mxPoint x="-1460" y="-2242" />
              <mxPoint x="-1460" y="-3280" />
              <mxPoint x="-401" y="-3280" />
            </Array>
          </mxGeometry>
        </mxCell>
        <mxCell id="0kxpaT6RJMtvkMURH7MP-29" value="N" style="text;html=1;align=center;verticalAlign=middle;resizable=0;points=[];autosize=1;strokeColor=none;fillColor=none;" parent="1" vertex="1">
          <mxGeometry x="-400" y="-3203" width="30" height="30" as="geometry" />
        </mxCell>
        <mxCell id="0kxpaT6RJMtvkMURH7MP-30" value="1" style="text;html=1;align=center;verticalAlign=middle;resizable=0;points=[];autosize=1;strokeColor=none;fillColor=none;" parent="1" vertex="1">
          <mxGeometry x="-1364" y="-2266" width="30" height="30" as="geometry" />
        </mxCell>
        <mxCell id="0kxpaT6RJMtvkMURH7MP-36" value="" style="endArrow=diamondThin;endFill=0;endSize=24;html=1;rounded=0;entryX=0;entryY=0.5;entryDx=0;entryDy=0;" parent="1" target="_Yf7NFdis905VVjhMTxZ-44" edge="1">
          <mxGeometry width="160" relative="1" as="geometry">
            <mxPoint x="-360" y="-2610" as="sourcePoint" />
            <mxPoint x="-240" y="-2665" as="targetPoint" />
          </mxGeometry>
        </mxCell>
        <mxCell id="0kxpaT6RJMtvkMURH7MP-37" value="N" style="text;html=1;align=center;verticalAlign=middle;resizable=0;points=[];autosize=1;strokeColor=none;fillColor=none;" parent="1" vertex="1">
          <mxGeometry x="-108" y="-2633" width="30" height="30" as="geometry" />
        </mxCell>
        <mxCell id="0kxpaT6RJMtvkMURH7MP-38" value="1" style="text;html=1;align=center;verticalAlign=middle;resizable=0;points=[];autosize=1;strokeColor=none;fillColor=none;" parent="1" vertex="1">
          <mxGeometry x="-366" y="-2634" width="30" height="30" as="geometry" />
        </mxCell>
        <mxCell id="0kxpaT6RJMtvkMURH7MP-39" value="" style="endArrow=diamondThin;endFill=0;endSize=24;html=1;rounded=0;entryX=0;entryY=0.5;entryDx=0;entryDy=0;exitX=1;exitY=0.5;exitDx=0;exitDy=0;" parent="1" source="NCuWdFcefo5cONYe_Eqj-77" edge="1">
          <mxGeometry width="160" relative="1" as="geometry">
            <mxPoint x="-318" y="-3070" as="sourcePoint" />
            <mxPoint x="-18" y="-3070" as="targetPoint" />
            <Array as="points">
              <mxPoint x="-280" y="-2671" />
              <mxPoint x="-280" y="-3070" />
            </Array>
          </mxGeometry>
        </mxCell>
        <mxCell id="0kxpaT6RJMtvkMURH7MP-40" value="1" style="text;html=1;align=center;verticalAlign=middle;resizable=0;points=[];autosize=1;strokeColor=none;fillColor=none;" parent="1" vertex="1">
          <mxGeometry x="-366" y="-2695" width="30" height="30" as="geometry" />
        </mxCell>
        <mxCell id="0kxpaT6RJMtvkMURH7MP-41" value="1" style="text;html=1;align=center;verticalAlign=middle;resizable=0;points=[];autosize=1;strokeColor=none;fillColor=none;" parent="1" vertex="1">
          <mxGeometry x="-65" y="-3093" width="30" height="30" as="geometry" />
        </mxCell>
        <mxCell id="0kxpaT6RJMtvkMURH7MP-42" value="" style="endArrow=diamondThin;endFill=0;endSize=24;html=1;rounded=0;entryX=1;entryY=0.5;entryDx=0;entryDy=0;exitX=0.454;exitY=1.051;exitDx=0;exitDy=0;exitPerimeter=0;" parent="1" source="NCuWdFcefo5cONYe_Eqj-72" target="NCuWdFcefo5cONYe_Eqj-83" edge="1">
          <mxGeometry width="160" relative="1" as="geometry">
            <mxPoint x="-889" y="-1820" as="sourcePoint" />
            <mxPoint x="-589" y="-1820" as="targetPoint" />
            <Array as="points">
              <mxPoint x="-937" y="-1700" />
              <mxPoint x="340" y="-1700" />
              <mxPoint x="340" y="-3058" />
            </Array>
          </mxGeometry>
        </mxCell>
        <mxCell id="0kxpaT6RJMtvkMURH7MP-43" value="1" style="text;html=1;align=center;verticalAlign=middle;resizable=0;points=[];autosize=1;strokeColor=none;fillColor=none;" parent="1" vertex="1">
          <mxGeometry x="-962" y="-1875" width="30" height="30" as="geometry" />
        </mxCell>
        <mxCell id="0kxpaT6RJMtvkMURH7MP-44" value="1" style="text;html=1;align=center;verticalAlign=middle;resizable=0;points=[];autosize=1;strokeColor=none;fillColor=none;" parent="1" vertex="1">
          <mxGeometry x="205" y="-3082" width="30" height="30" as="geometry" />
        </mxCell>
        <mxCell id="0kxpaT6RJMtvkMURH7MP-45" value="" style="endArrow=diamondThin;endFill=0;endSize=24;html=1;rounded=0;entryX=0.5;entryY=0;entryDx=0;entryDy=0;exitX=0.77;exitY=0;exitDx=0;exitDy=0;exitPerimeter=0;" parent="1" target="NCuWdFcefo5cONYe_Eqj-80" edge="1">
          <mxGeometry width="160" relative="1" as="geometry">
            <mxPoint x="-877" y="-2775" as="sourcePoint" />
            <mxPoint x="-877" y="-2862" as="targetPoint" />
            <Array as="points">
              <mxPoint x="-880" y="-3320" />
              <mxPoint x="82" y="-3320" />
            </Array>
          </mxGeometry>
        </mxCell>
        <mxCell id="0kxpaT6RJMtvkMURH7MP-46" value="1" style="text;html=1;align=center;verticalAlign=middle;resizable=0;points=[];autosize=1;strokeColor=none;fillColor=none;" parent="1" vertex="1">
          <mxGeometry x="-884" y="-2802" width="30" height="30" as="geometry" />
        </mxCell>
        <mxCell id="0kxpaT6RJMtvkMURH7MP-47" value="1" style="text;html=1;align=center;verticalAlign=middle;resizable=0;points=[];autosize=1;strokeColor=none;fillColor=none;" parent="1" vertex="1">
          <mxGeometry x="59" y="-3239" width="30" height="30" as="geometry" />
        </mxCell>
      </root>
    </mxGraphModel>
  </diagram>
</mxfile>
